<?xml version="1.0" encoding="UTF-8" standalone="no"?>
<!DOCTYPE svg PUBLIC "-//W3C//DTD SVG 1.1//EN" "http://www.w3.org/Graphics/SVG/1.1/DTD/svg11.dtd">
<svg width="100%" height="100%" viewBox="0 0 1080 1080" version="1.1" xmlns="http://www.w3.org/2000/svg" xmlns:xlink="http://www.w3.org/1999/xlink" xml:space="preserve" xmlns:serif="http://www.serif.com/" style="fill-rule:evenodd;clip-rule:evenodd;stroke-linejoin:round;stroke-miterlimit:2;">
    <g transform="matrix(0.706244,0,0,0.706244,-137.992,116.254)">
        <g>
            <path d="M1590.77,897.852C1491.54,992.549 1343.08,991.462 1211.23,1027.44C1080.21,1063.3 993.07,1128.59 829.961,1148.96C698.845,1165.34 538.282,1152.54 420.111,1076.75C301.94,1000.96 223.196,859.103 205.435,709.778C187.785,561.258 231.227,406.07 321.377,294.563C411.637,183.861 549.438,116.727 679.088,95.814C808.627,74.095 931.792,99.176 1067.16,107.833C1203.47,117.182 1352.93,110.799 1474.25,172.221C1595.67,234.448 1688.83,363.676 1712.39,505.651C1736.05,648.432 1689.06,802.463 1590.77,897.852Z" style="fill:rgb(20,0,69);fill-rule:nonzero;"/>
            <path d="M660.745,56.78C693.238,72.825 711.795,108.054 704.157,127.342C696.519,146.63 658.274,152.462 614.916,172.507C552.952,201.153 509.483,238.395 475.314,217.562C441.394,196.809 433.707,152.366 442.665,118.905C457.372,63.973 593.497,23.573 660.745,56.78Z" style="fill:rgb(61,92,142);fill-rule:nonzero;"/>
            <path d="M1187.87,310.88C1004.88,202.409 779.717,310.888 701.367,420.32C620.178,533.718 602.488,691.179 662.736,757.299C757.815,861.643 999.658,921.342 1195.21,825.086C1279.09,783.794 1352.76,736.094 1379.87,642.549C1405.66,553.581 1304.67,380.118 1187.87,310.88Z" style="fill:rgb(174,210,225);fill-rule:nonzero;"/>
            <path d="M856.23,471.495C807.444,535.761 774.756,647.16 809.586,708.784C844.768,770.406 947.467,782.252 1044.44,780.931C1141.07,779.611 1236.11,750.19 1275.4,684.931C1314.35,620.025 1297.54,519.632 1249.35,457.039C1201.51,394.093 1122.29,369.297 1048.17,372.933C974.043,376.217 905.018,407.58 856.23,471.495Z" style="fill:rgb(61,92,142);fill-rule:nonzero;"/>
            <path d="M1327.3,107.476C1316.25,111.719 1309.94,119.192 1306.8,129.536C1303.73,139.641 1303.02,149.031 1304.7,160.169C1306.27,170.569 1316.43,181.245 1336.29,179.832C1366.42,177.688 1385.59,190.414 1404.73,180.742C1415.33,175.386 1417.83,166.951 1417.79,157.873C1417.75,148.795 1410.99,138.232 1403.31,129.465C1395.63,120.697 1379.79,111.362 1368.37,108.695C1357.31,106.109 1338.35,103.232 1327.3,107.476Z" style="fill:rgb(61,92,142);fill-rule:nonzero;"/>
            <path d="M855.737,708.206C827.448,681.962 817.495,636.956 837.571,561.403C851.842,507.698 901.558,464.444 919.85,448.33C951.041,420.851 997.54,400.217 1008.38,397.249C1018.9,394.368 1039.91,389.943 1042.52,395.753C1044.97,401.211 1021.88,411.037 1013.66,414.818C972.891,433.559 917.908,480.167 896.804,544.907C879.04,599.398 881.577,673.158 938.353,699.562C995.595,726.182 1064.91,726.631 1104.78,718.766C1159.74,707.925 1187.48,695.904 1207.51,687.028C1218.3,682.245 1233.87,679.574 1237.35,686.115C1241.85,694.561 1215.72,714.679 1181.07,732.105C1135.23,755.163 1086.55,765.727 1006.56,763.022C969.229,761.76 895.676,745.257 855.737,708.206Z" style="fill:rgb(221,233,237);fill-rule:nonzero;"/>
        </g>
    </g>
</svg>
