<svg xmlns="http://www.w3.org/2000/svg" fill-rule="evenodd" width="100%" height="100%" stroke-linejoin="round" stroke-miterlimit="2" clip-rule="evenodd" version="1.1" viewBox="0 0 525 525" xml:space="preserve"><g fill-rule="nonzero"><path d="M261.996.001c144.956-.322 262.709 116.941 263.003 261.953.294 145.012-116.983 262.737-261.939 263.045C118.104 525.307.295 408.044.001 263.06-.293 118.076 116.998.281 261.996.001z" fill="url(#a)"/><path d="m261.996 4.845.546-.001c141.136 0 257.339 115.989 257.599 257.124.294 142.296-114.799 257.865-257.095 258.187C120.75 520.477 5.153 405.342 4.859 263.06 4.565 120.778 119.686 5.139 261.996 4.845z" fill="url(#b)"/><path d="M480.955 262.5c0 119.81-98.589 218.4-218.399 218.4S44.157 382.31 44.157 262.5 142.746 44.101 262.556 44.101 480.955 142.69 480.955 262.5z" fill="url(#c)"/><path d="M473.311 262.5v.014c0 115.655-95.17 210.826-210.825 210.826-115.655 0-210.825-95.171-210.825-210.826 0-115.655 95.17-210.825 210.825-210.825 115.65 0 210.818 95.161 210.825 210.811z" fill="url(#d)"/><path d="M436.8 262.5c0 95.618-78.682 174.3-174.3 174.3-95.618 0-174.3-78.682-174.3-174.3 0-95.613 78.673-174.292 174.286-174.3 95.62 0 174.306 78.68 174.314 174.3z" fill="url(#e)"/><path d="M413.182 262.5c0 82.662-68.021 150.682-150.682 150.682-82.662 0-150.682-68.02-150.682-150.682 0-82.656 68.012-150.674 150.668-150.682 82.664 0 150.688 68.018 150.696 150.682z" fill="url(#f)"/><path d="M394.1 262.5c0 72.193-59.407 131.6-131.6 131.6s-131.6-59.407-131.6-131.6 59.407-131.6 131.6-131.6 131.6 59.407 131.6 131.6z" fill="url(#g)"/><path d="M378.7 262.5c0 63.745-52.455 116.2-116.2 116.2-63.745 0-116.2-52.455-116.2-116.2 0-63.745 52.455-116.2 116.2-116.2 63.745 0 116.2 52.455 116.2 116.2z" fill="url(#h)"/><path d="M360.612 262.5c0 53.823-44.289 98.112-98.112 98.112-53.823 0-98.112-44.289-98.112-98.112 0-53.817 44.281-98.104 98.098-98.112 53.825 0 98.118 44.287 98.126 98.112z" fill="url(#i)"/><path d="M348.236 262.5c0 47.041-38.709 85.75-85.75 85.75s-85.75-38.709-85.75-85.75 38.709-85.75 85.75-85.75 85.75 38.709 85.75 85.75z" fill="url(#j)"/><path d="M327.6 262.5c0 35.713-29.387 65.1-65.1 65.1-35.713 0-65.1-29.387-65.1-65.1 0-35.713 29.387-65.1 65.1-65.1 35.713 0 65.1 29.387 65.1 65.1z" fill="url(#k)"/><path d="M293.3 262.5c0 16.896-13.904 30.8-30.8 30.8s-30.8-13.904-30.8-30.8 13.904-30.8 30.8-30.8 30.8 13.904 30.8 30.8z" fill="#1c1c1c"/></g><path d="M411.432 262.5v.014c0 81.709-67.237 148.946-148.946 148.946S113.54 344.223 113.54 262.514s67.237-148.946 148.946-148.946c81.704 0 148.938 67.228 148.946 148.932z" fill="#0075cf" fill-opacity=".31" fill-rule="nonzero"/><path d="M412.286 262.5c0 82.178-67.622 149.8-149.8 149.8-82.178 0-149.8-67.622-149.8-149.8 0-82.178 67.622-149.8 149.8-149.8 82.178 0 149.8 67.622 149.8 149.8z" fill="url(#l)" fill-rule="nonzero"/><path d="M415.8 262.5c0 84.098-69.202 153.3-153.3 153.3-84.098 0-153.3-69.202-153.3-153.3 0-84.092 69.194-153.292 153.286-153.3h.014c84.098 0 153.3 69.202 153.3 153.3z" fill="url(#m)" fill-rule="nonzero"/><path d="M109.2 262.5c0 84.098 69.202 153.3 153.3 153.3 84.098 0 153.3-69.202 153.3-153.3 0-84.098-69.202-153.3-153.3-153.3-84.095.008-153.292 69.205-153.3 153.3z" fill="url(#n)" fill-rule="nonzero"/><circle fill="#3d96db" fill-opacity=".1" cx="212.17" cy="326.186" r="56.462"/><path d="M172.369 118.44a5.848 5.848 0 0 1 1.079 4.565 6.512 6.512 0 0 1-3.023 3.762l-2.733 1.781-6.371-9.744 3.01-1.969a5.982 5.982 0 0 1 4.439-1.104 5.557 5.557 0 0 1 3.599 2.709zm-1.643 1.154c-1.53-2.333-3.381-2.784-5.555-1.355l-1.38.903 4.615 7.061 1.142-.74c2.349-1.547 2.742-3.503 1.178-5.869zm12.453-4.101c.493.805.568 1.801.201 2.671a4.845 4.845 0 0 1-2.27 2.283 7.377 7.377 0 0 1-3.122 1.04l-.878-1.567a8.775 8.775 0 0 0 1.768-.314 6.827 6.827 0 0 0 1.555-.627c.55-.26.994-.704 1.254-1.254a1.38 1.38 0 0 0-.1-1.254 1.466 1.466 0 0 0-.966-.727 7.35 7.35 0 0 0-2.307.062 5.493 5.493 0 0 1-2.672-.188 3.154 3.154 0 0 1-1.555-1.379 2.738 2.738 0 0 1-.213-2.508 4.317 4.317 0 0 1 2.019-2.095 8.208 8.208 0 0 1 3.261-.978l.226 1.643a7.134 7.134 0 0 0-2.734.79 2.137 2.137 0 0 0-1.029 1.028c-.148.384-.111.815.101 1.167.125.237.311.436.539.577.264.137.555.214.853.225.583.012 1.165-.022 1.743-.1a8.258 8.258 0 0 1 2.119 0c.448.064.877.227 1.254.477.389.269.715.62.953 1.028zm4.703 1.154-5.016-10.497 1.718-.828 4.327 9.03 4.452-2.145.702 1.467-6.183 2.973zm9.143-9.293 1.73 4.314-1.756.715-4.351-10.798 3.047-1.254a5.395 5.395 0 0 1 3.411-.464 3.038 3.038 0 0 1 1.957 1.956 3.207 3.207 0 0 1-.941 3.763l5.016 3.549-2.006.802-4.314-3.273-1.793.69zm-.59-1.455 1.254-.501a2.917 2.917 0 0 0 1.593-1.179 1.784 1.784 0 0 0 0-1.58 1.594 1.594 0 0 0-1.129-1.066 3.406 3.406 0 0 0-1.956.326l-1.179.464 1.417 3.536zm30.437-13.444a3.14 3.14 0 0 0-2.283 1.668 4.946 4.946 0 0 0-.251 3.336 5.097 5.097 0 0 0 1.555 2.985 3.216 3.216 0 0 0 2.797.527c.471-.1.93-.251 1.367-.452a16.61 16.61 0 0 0 1.329-.664l.339 1.592a8.619 8.619 0 0 1-2.935 1.154 4.932 4.932 0 0 1-4.151-.69 6.474 6.474 0 0 1-2.27-4.05 7.302 7.302 0 0 1 0-3.249 4.711 4.711 0 0 1 1.455-2.432 5.768 5.768 0 0 1 2.734-1.33 7.128 7.128 0 0 1 3.374 0l-.339 1.681a12.76 12.76 0 0 0-1.317-.213 4.372 4.372 0 0 0-1.404.137zm15.788 7.713-1.605-3.047-4.402.614-.677 3.361-1.994.276 2.697-12.177 2.056-.276 5.919 10.961-1.994.288zm-2.32-4.615-1.517-2.985c-.113-.2-.263-.514-.464-.953a8.929 8.929 0 0 1-.426-.953 18.474 18.474 0 0 1-.339 2.22l-.615 3.148 3.361-.477zm11.964 3.762-3.887-9.531h-.063c.163 1.442.276 2.797.351 4.051l.301 5.656-1.718.088-.627-11.613 2.671-.151 3.762 9.067 2.822-9.43 2.684-.138.639 11.613-1.831.1-.313-5.744c0-.577-.025-1.329-.075-2.257v-1.693h-.076l-2.959 9.882-1.681.1zm17.796-.138-6.584-.163.301-11.638 6.584.176v1.605l-4.678-.125-.075 3.173 4.376.113v1.592l-4.376-.113-.101 3.65 4.678.113-.125 1.617zm6.069-4.238-.426 4.627-1.894-.175 1.054-11.588 3.273.301a5.377 5.377 0 0 1 3.248 1.141 3.05 3.05 0 0 1 .853 2.634 3.205 3.205 0 0 1-2.508 2.884l2.796 5.43-2.157-.201-2.345-4.878-1.894-.175zm.138-1.568 1.317.113c.673.121 1.367.01 1.969-.314.448-.328.718-.849.727-1.404a1.607 1.607 0 0 0-.514-1.468 3.513 3.513 0 0 0-1.893-.601l-1.254-.113-.352 3.787zm16.228 8.452-.627-3.386-4.402-.714-1.643 3.009-1.981-.326 6.183-10.822 2.044.326 2.42 12.24-1.994-.327zm-.865-5.016-.564-3.298c0-.226-.101-.577-.163-1.041-.063-.464-.113-.828-.126-1.041-.28.688-.602 1.358-.966 2.007l-1.53 2.834 3.349.539zm27.364 12.115 4.138-10.873 1.781.677-3.561 9.368 4.615 1.743-.59 1.53-6.383-2.445zm15.413 6.433-5.995-2.709 4.791-10.609 6.007 2.708-.665 1.468-4.264-1.932-1.254 2.897 3.988 1.806-.652 1.442-4.001-1.805-1.505 3.335 4.264 1.932-.714 1.467zm11.876 6.245-2.044-1.116-.602-10.873h-.063l-.213.477a34.376 34.376 0 0 1-1.192 2.433l-2.884 5.317-1.518-.828 5.556-10.22 2.032 1.103.602 10.823c0-.113.238-.514.576-1.254.339-.74.615-1.254.816-1.593l2.909-5.367 1.53.84-5.505 10.258zm10.998 3.211a2.913 2.913 0 0 1-2.257 1.442 5.017 5.017 0 0 1-3.085-.928 7.304 7.304 0 0 1-2.383-2.27l.965-1.505c.325.504.699.975 1.117 1.405.374.407.795.769 1.254 1.078.47.361 1.05.552 1.643.539.443-.04.841-.292 1.065-.677.236-.349.305-.786.189-1.191a7.342 7.342 0 0 0-1.129-2.007 5.488 5.488 0 0 1-1.104-2.508 3.15 3.15 0 0 1 .527-2.019 2.788 2.788 0 0 1 2.119-1.379 4.348 4.348 0 0 1 2.784.802 8.165 8.165 0 0 1 2.408 2.408l-1.354.978a7.213 7.213 0 0 0-1.982-2.044 2.155 2.155 0 0 0-1.392-.414 1.257 1.257 0 0 0-.978.64 1.39 1.39 0 0 0-.251.752c-.004.297.065.59.201.853.261.523.567 1.023.916 1.492a8.096 8.096 0 0 1 1.04 1.844c.352.884.224 1.89-.338 2.659l.025.05zm76.223 151.204c4.54.376 6.655 2.416 6.346 6.12a7.025 7.025 0 0 1-.264 1.467l-1.555-.138c.164-.443.261-.908.289-1.379a3.644 3.644 0 0 0-.765-2.885 4.833 4.833 0 0 0-3.111-1.254v.101c.409.275.724.669.903 1.128a3.34 3.34 0 0 1 .226 1.618 3.159 3.159 0 0 1-1.179 2.37 3.766 3.766 0 0 1-2.696.665 3.965 3.965 0 0 1-2.797-1.254 3.673 3.673 0 0 1-.827-2.872 3.912 3.912 0 0 1 .79-2.107 3.836 3.836 0 0 1 1.856-1.254 6.827 6.827 0 0 1 2.784-.326zm-3.9 3.762a1.853 1.853 0 0 0 .489 1.53c.48.42 1.093.66 1.73.677a2.323 2.323 0 0 0 1.606-.363c.434-.338.692-.855.702-1.405a2.51 2.51 0 0 0-.163-1.141 2.236 2.236 0 0 0-.64-.865 1.703 1.703 0 0 0-.89-.364 2.91 2.91 0 0 0-1.931.452c-.52.308-.857.852-.903 1.454v.025zm-2.233 7.65 9.18 6.02.903-5.982 1.618.238-1.179 7.964-1.254-.189-9.531-6.057.263-1.994zm-2.633 14.723 10.233-1.103v-.063a62.23 62.23 0 0 1-3.988-.778l-5.518-1.254.389-1.68 11.349 2.621-.614 2.608-9.744 1.066 8.264 5.33-.602 2.621-11.287-2.634.414-1.78 5.606 1.254c.564.125 1.254.313 2.195.552l1.63.451v-.063l-8.703-5.568.376-1.58zm-4.302 15.526 10.296-.113a66.325 66.325 0 0 1-3.887-1.167l-5.368-1.793.552-1.643 11.036 3.7-.853 2.508-9.807.125 7.713 6.108-.853 2.508-11.036-3.7.577-1.743 5.455 1.844c.552.175 1.254.426 2.132.752.878.326 1.405.527 1.58.615v-.063l-8.088-6.408.551-1.53zm-2.784 10.509c.309.104.566.324.715.614.13.296.13.633 0 .928-.098.314-.327.57-.627.703a1.484 1.484 0 0 1-1.643-.678c-.13-.299-.13-.64 0-.94.103-.312.337-.564.64-.69.302-.095.629-.073.915.063zM105.64 321.4l.652 1.756-7.061 2.596c-.84.313-1.517.539-2.019.677l.552.276 1.994 1.166-.79 1.254-3.762-2.282-.539-1.467 10.973-3.976zm-9.193-2.884a1.057 1.057 0 0 1-1.505-.765 1.255 1.255 0 0 1 0-.941 1.26 1.26 0 0 1 .765-.552c.302-.121.639-.121.941 0 .292.156.503.431.577.753.135.294.135.633 0 .928a1.26 1.26 0 0 1-.778.577zm6.484-2.019a1.255 1.255 0 0 1-.941 0 1.254 1.254 0 0 1-.551-.74 1.136 1.136 0 0 1 0-.941c.17-.273.44-.471.752-.552.302-.121.639-.121.941 0 .574.337.808 1.059.539 1.668-.165.276-.43.479-.74.565zm-2.057-10.873.477 1.868-7.274 1.882c-.878.225-1.567.376-2.082.464.178.103.349.217.515.338.2.126.815.577 1.868 1.355l-.915 1.254-3.399-2.784-.389-1.518 11.199-2.859zm-2.207-5.154a1.257 1.257 0 0 1-.928-.126 1.107 1.107 0 0 1-.477-.79 1.093 1.093 0 0 1 .138-.928c.194-.253.476-.424.791-.476.317-.083.655-.038.94.125.277.175.462.465.502.79.076.315.026.648-.138.928-.202.262-.5.433-.828.477zm-3.888-13.369.301 1.58 2.509-.388.275 1.793-2.508.389.815 5.254-1.429.226-8.403-4.088-.288-1.794 7.525-1.153-.239-1.556 1.442-.263zm-.953 3.587-2.884.451c-1.028.151-1.881.264-2.508.314v.062c.469.124.926.288 1.367.49l4.59 2.219-.565-3.536z" fill="#9e9e9e" fill-rule="nonzero"/><defs><radialGradient id="n" cx="0" cy="0" r="1" gradientTransform="matrix(-58.7775 30.8223 30.8223 58.0607 159.244 391.738)" gradientUnits="userSpaceOnUse"><stop offset="0" stop-color="#ffffa6" stop-opacity=".3"/><stop offset=".21" stop-color="#ab66de" stop-opacity=".3"/><stop offset=".26" stop-color="#8c5bd5" stop-opacity=".25"/><stop offset=".31" stop-color="#6b4fcc" stop-opacity=".19"/><stop offset=".38" stop-color="#4e45c3" stop-opacity=".14"/><stop offset=".45" stop-color="#363cbc" stop-opacity=".1"/><stop offset=".52" stop-color="#2235b7" stop-opacity=".06"/><stop offset=".6" stop-color="#1330b2" stop-opacity=".03"/><stop offset=".69" stop-color="#082caf" stop-opacity=".01"/><stop offset=".8" stop-color="#022aae" stop-opacity="0"/><stop offset="1" stop-color="#0029ad" stop-opacity="0"/></radialGradient><radialGradient id="m" cx="0" cy="0" r="1" gradientTransform="matrix(53.3924 39.1544 -31.3235 42.7139 333.034 338.824)" gradientUnits="userSpaceOnUse"><stop offset="0" stop-color="#ffffa6" stop-opacity=".8"/><stop offset=".26" stop-color="#ab66de" stop-opacity=".8"/><stop offset=".3" stop-color="#9d61da" stop-opacity=".73"/><stop offset=".43" stop-color="#6d50cc" stop-opacity=".51"/><stop offset=".55" stop-color="#4642c1" stop-opacity=".33"/><stop offset=".67" stop-color="#2737b8" stop-opacity=".18"/><stop offset=".79" stop-color="#122fb2" stop-opacity=".08"/><stop offset=".9" stop-color="#042bae" stop-opacity=".02"/><stop offset="1" stop-color="#0029ad" stop-opacity="0"/></radialGradient><radialGradient id="c" cx="0" cy="0" r="1" gradientTransform="translate(259.42 260.288) scale(240.827)" gradientUnits="userSpaceOnUse"><stop offset="0" stop-color="#616161" stop-opacity="1"/><stop offset=".19" stop-color="#545454" stop-opacity="1"/><stop offset=".55" stop-color="#323232" stop-opacity="1"/><stop offset="1" stop-color="#000" stop-opacity="1"/></radialGradient><radialGradient id="d" cx="0" cy="0" r="1" gradientTransform="translate(264.054 263.466) scale(317.659)" gradientUnits="userSpaceOnUse"><stop offset="0" stop-color="#616161" stop-opacity="1"/><stop offset=".18" stop-color="#575757" stop-opacity="1"/><stop offset=".47" stop-color="#3d3d3d" stop-opacity="1"/><stop offset=".85" stop-color="#131313" stop-opacity="1"/><stop offset="1" stop-color="#000" stop-opacity="1"/></radialGradient><radialGradient id="e" cx="0" cy="0" r="1" gradientTransform="translate(263.172 266.294) scale(176.386)" gradientUnits="userSpaceOnUse"><stop offset="0" stop-color="#616161" stop-opacity="1"/><stop offset=".56" stop-color="#616161" stop-opacity="1"/><stop offset=".64" stop-color="#575757" stop-opacity="1"/><stop offset=".77" stop-color="#3d3d3d" stop-opacity="1"/><stop offset=".93" stop-color="#131313" stop-opacity="1"/><stop offset="1" stop-color="#000" stop-opacity="1"/></radialGradient><radialGradient id="f" cx="0" cy="0" r="1" gradientTransform="translate(79017.8 79852.5) scale(33038.5)" gradientUnits="userSpaceOnUse"><stop offset="0" stop-color="#616161" stop-opacity="1"/><stop offset=".56" stop-color="#616161" stop-opacity="1"/><stop offset=".64" stop-color="#575757" stop-opacity="1"/><stop offset=".77" stop-color="#3d3d3d" stop-opacity="1"/><stop offset=".93" stop-color="#131313" stop-opacity="1"/><stop offset="1" stop-color="#000" stop-opacity="1"/></radialGradient><radialGradient id="g" cx="0" cy="0" r="1" gradientTransform="translate(69097 100494) scale(46794.2)" gradientUnits="userSpaceOnUse"><stop offset="0" stop-color="#616161" stop-opacity="1"/><stop offset=".18" stop-color="#575757" stop-opacity="1"/><stop offset=".47" stop-color="#3d3d3d" stop-opacity="1"/><stop offset=".85" stop-color="#131313" stop-opacity="1"/><stop offset="1" stop-color="#000" stop-opacity="1"/></radialGradient><radialGradient id="h" cx="0" cy="0" r="1" gradientTransform="translate(61276.6 60089.1) scale(18791.8)" gradientUnits="userSpaceOnUse"><stop offset="0" stop-color="#616161" stop-opacity="1"/><stop offset=".18" stop-color="#575757" stop-opacity="1"/><stop offset=".47" stop-color="#3d3d3d" stop-opacity="1"/><stop offset=".85" stop-color="#131313" stop-opacity="1"/><stop offset="1" stop-color="#000" stop-opacity="1"/></radialGradient><radialGradient id="i" cx="0" cy="0" r="1" gradientTransform="translate(53386.1 -13585) scale(88997.2)" gradientUnits="userSpaceOnUse"><stop offset="0" stop-color="#616161" stop-opacity="1"/><stop offset=".18" stop-color="#575757" stop-opacity="1"/><stop offset=".47" stop-color="#3d3d3d" stop-opacity="1"/><stop offset=".85" stop-color="#131313" stop-opacity="1"/><stop offset="1" stop-color="#000" stop-opacity="1"/></radialGradient><radialGradient id="j" cx="0" cy="0" r="1" gradientTransform="translate(45039.3 46071.8) scale(11879.8)" gradientUnits="userSpaceOnUse"><stop offset="0" stop-color="#616161" stop-opacity="1"/><stop offset=".18" stop-color="#575757" stop-opacity="1"/><stop offset=".47" stop-color="#3d3d3d" stop-opacity="1"/><stop offset=".85" stop-color="#131313" stop-opacity="1"/><stop offset="1" stop-color="#000" stop-opacity="1"/></radialGradient><radialGradient id="k" cx="0" cy="0" r="1" gradientTransform="translate(34320.2 34392.4) scale(6044.01)" gradientUnits="userSpaceOnUse"><stop offset="0" stop-color="#616161" stop-opacity="1"/><stop offset=".18" stop-color="#575757" stop-opacity="1"/><stop offset=".47" stop-color="#3d3d3d" stop-opacity="1"/><stop offset=".85" stop-color="#131313" stop-opacity="1"/><stop offset="1" stop-color="#000" stop-opacity="1"/></radialGradient><radialGradient id="l" cx="0" cy="0" r="1" gradientTransform="translate(162.725 167.477) scale(106.334)" gradientUnits="userSpaceOnUse"><stop offset="0" stop-color="#ffffa6" stop-opacity=".75"/><stop offset=".21" stop-color="#ab66de" stop-opacity=".75"/><stop offset=".25" stop-color="#8c69db" stop-opacity=".61"/><stop offset=".31" stop-color="#6b6cd8" stop-opacity=".47"/><stop offset=".38" stop-color="#4e6ed6" stop-opacity=".34"/><stop offset=".44" stop-color="#3670d4" stop-opacity=".24"/><stop offset=".52" stop-color="#2272d2" stop-opacity=".15"/><stop offset=".6" stop-color="#1373d1" stop-opacity=".08"/><stop offset=".69" stop-color="#0874d0" stop-opacity=".04"/><stop offset=".8" stop-color="#0275cf" stop-opacity="0"/><stop offset="1" stop-color="#0075cf" stop-opacity="0"/></radialGradient><linearGradient id="b" x1="0" x2="1" y1="0" y2="0" gradientTransform="matrix(144707 144716 -144716 144707 61199.5 61194.9)" gradientUnits="userSpaceOnUse"><stop offset="0" stop-color="#1a1a1a" stop-opacity="1"/><stop offset=".5" stop-color="#3b3b3b" stop-opacity="1"/><stop offset="1" stop-color="#000" stop-opacity="1"/></linearGradient><linearGradient id="a" x1="0" x2="1" y1="0" y2="0" gradientTransform="rotate(132.899 205.275 131.358) scale(525.044)" gradientUnits="userSpaceOnUse"><stop offset="0" stop-color="#1a1a1a" stop-opacity="1"/><stop offset=".5" stop-color="#3b3b3b" stop-opacity="1"/><stop offset="1" stop-color="#000" stop-opacity="1"/></linearGradient></defs></svg>