<?xml version="1.0" encoding="UTF-8" standalone="no"?><!DOCTYPE svg PUBLIC "-//W3C//DTD SVG 1.1//EN" "http://www.w3.org/Graphics/SVG/1.1/DTD/svg11.dtd"><svg width="100%" height="100%" viewBox="0 0 946 299" version="1.1" xmlns="http://www.w3.org/2000/svg" xmlns:xlink="http://www.w3.org/1999/xlink" xml:space="preserve" xmlns:serif="http://www.serif.com/" style="fill-rule:evenodd;clip-rule:evenodd;stroke-linejoin:round;stroke-miterlimit:2;"><g><g><path d="M372.838,228.957c-26.632,25.415 -66.477,25.123 -101.862,34.779c-35.162,9.625 -58.55,27.148 -102.326,32.615c-35.189,4.394 -78.281,0.96 -109.996,-19.381c-31.715,-20.342 -52.849,-58.413 -57.616,-98.489c-4.737,-39.86 6.922,-81.51 31.117,-111.436c24.224,-29.711 61.208,-47.728 96.003,-53.341c34.767,-5.829 67.822,0.902 104.153,3.226c36.584,2.509 76.696,0.796 109.255,17.28c32.587,16.701 57.591,51.383 63.913,89.487c6.351,38.32 -6.262,79.659 -32.641,105.26Z" style="fill:#140045;fill-rule:nonzero;"/><path d="M123.235,3.228c8.72,4.306 13.701,13.761 11.651,18.938c-2.05,5.176 -12.315,6.741 -23.951,12.121c-16.63,7.688 -28.296,17.683 -37.467,12.092c-9.103,-5.57 -11.166,-17.498 -8.762,-26.478c3.947,-14.743 40.481,-25.585 58.529,-16.673Z" style="fill:#3d5c8e;fill-rule:nonzero;"/><path d="M264.705,71.424c-49.11,-29.112 -109.541,0.002 -130.569,29.372c-21.789,30.434 -26.537,72.693 -10.368,90.439c25.518,28.004 90.424,44.026 142.906,18.193c22.514,-11.082 42.284,-23.884 49.561,-48.99c6.92,-23.877 -20.183,-70.432 -51.53,-89.014Z" style="fill:#aed2e1;fill-rule:nonzero;"/><path d="M175.699,114.53c-13.093,17.248 -21.866,47.146 -12.518,63.684c9.442,16.539 37.005,19.718 63.032,19.363c25.933,-0.354 51.441,-8.25 61.986,-25.764c10.451,-17.42 5.941,-44.364 -6.992,-61.163c-12.84,-16.893 -34.102,-23.548 -53.995,-22.572c-19.893,0.881 -38.419,9.299 -51.513,26.452Z" style="fill:#3d5c8e;fill-rule:nonzero;"/><path d="M302.125,16.834c-2.966,1.139 -4.66,3.144 -5.503,5.92c-0.823,2.712 -1.014,5.233 -0.562,8.222c0.421,2.791 3.149,5.656 8.478,5.277c8.088,-0.576 13.232,2.84 18.369,0.244c2.844,-1.437 3.515,-3.701 3.504,-6.138c-0.012,-2.436 -1.826,-5.271 -3.887,-7.624c-2.06,-2.353 -6.312,-4.858 -9.376,-5.574c-2.97,-0.694 -8.056,-1.466 -11.023,-0.327Z" style="fill:#3d5c8e;fill-rule:nonzero;"/><path d="M175.567,178.059c-7.592,-7.043 -10.263,-19.122 -4.875,-39.399c3.83,-14.414 17.173,-26.022 22.082,-30.347c8.371,-7.375 20.851,-12.913 23.76,-13.709c2.825,-0.773 8.463,-1.961 9.163,-0.402c0.656,1.465 -5.539,4.102 -7.747,5.117c-10.941,5.03 -25.697,17.538 -31.361,34.914c-4.767,14.624 -4.087,34.42 11.151,41.506c15.363,7.145 33.967,7.265 44.667,5.154c14.748,-2.909 22.193,-6.135 27.57,-8.518c2.897,-1.283 7.075,-2 8.01,-0.245c1.206,2.267 -5.806,7.667 -15.105,12.343c-12.305,6.189 -25.368,9.024 -46.836,8.298c-10.019,-0.339 -29.76,-4.768 -40.479,-14.712Z" style="fill:#dde9ed;fill-rule:nonzero;"/></g><g><g><path d="M519.144,71.95l0,-0.161c0,-9.772 -6.408,-13.857 -17.782,-16.82c-9.692,-2.483 -12.095,-3.685 -12.095,-7.369l0,-0.161c0,-2.723 2.483,-4.886 7.209,-4.886c4.726,0 9.612,2.083 14.578,5.527l6.408,-9.291c-5.687,-4.566 -12.656,-7.129 -20.826,-7.129c-11.454,-0 -19.624,6.728 -19.624,16.901l-0,0.16c-0,11.134 7.289,14.258 18.583,17.141c9.371,2.403 11.294,4.005 11.294,7.129l-0,0.16c-0,3.284 -3.044,5.287 -8.09,5.287c-6.408,-0 -11.695,-2.644 -16.741,-6.809l-7.289,8.731c6.729,6.007 15.299,8.971 23.79,8.971c12.095,0 20.585,-6.248 20.585,-17.381Z" style="fill-rule:nonzero;"/><path d="M564.88,88.53l0,-27.794c0,-9.852 -5.366,-15.94 -14.578,-15.94c-6.167,0 -9.772,3.284 -12.575,6.889l-0,-6.088l-12.175,0l-0,42.933l12.175,0l-0,-23.949c-0,-5.768 2.964,-8.731 7.609,-8.731c4.646,-0 7.369,2.963 7.369,8.731l0,23.949l12.175,0Z" style="fill-rule:nonzero;"/><path d="M609.335,88.53l0,-24.911c0,-11.614 -5.847,-18.502 -19.143,-18.502c-7.289,-0 -11.935,1.361 -16.661,3.444l3.044,9.291c3.925,-1.441 7.209,-2.323 11.855,-2.323c6.087,0 9.211,2.804 9.211,7.85l-0,0.721c-3.044,-1.041 -6.168,-1.762 -10.493,-1.762c-10.173,-0 -17.301,4.325 -17.301,13.697l-0,0.16c-0,8.49 6.648,13.136 14.738,13.136c5.927,0 10.012,-2.163 12.976,-5.447l-0,4.646l11.774,0Zm-11.534,-15.139c0,4.406 -3.845,7.53 -9.532,7.53c-3.924,-0 -6.648,-1.923 -6.648,-5.207l0,-0.16c0,-3.845 3.204,-5.927 8.411,-5.927c2.963,-0 5.687,0.641 7.769,1.602l0,2.162Z" style="fill-rule:nonzero;"/><path d="M654.591,81.642l-7.129,-7.209c-2.963,2.803 -5.767,4.565 -9.852,4.565c-6.648,0 -10.893,-5.286 -10.893,-11.854l-0,-0.16c-0,-6.328 4.325,-11.695 10.413,-11.695c4.325,0 7.048,1.842 9.772,4.726l7.449,-8.01c-4.005,-4.485 -9.051,-7.209 -17.141,-7.209c-13.136,0 -22.508,10.093 -22.508,22.348l0,0.16c0,12.255 9.452,22.187 22.348,22.187c8.57,0 13.376,-3.284 17.541,-7.849Z" style="fill-rule:nonzero;"/><path d="M701.049,88.53l-16.901,-26.032l16.34,-16.901l-14.578,0l-14.258,15.619l0,-31.158l-12.175,-0l0,58.472l12.175,0l0,-13.056l4.246,-4.485l11.213,17.541l13.938,0Z" style="fill-rule:nonzero;"/><path d="M735.331,75.474l-0,-0.16c-0,-7.85 -6.969,-10.733 -12.976,-12.736c-4.646,-1.602 -8.731,-2.723 -8.731,-5.126l0,-0.16c0,-1.682 1.522,-2.964 4.486,-2.964c3.124,-0 7.369,1.522 11.614,4.005l4.646,-8.411c-4.646,-3.123 -10.573,-4.966 -16.02,-4.966c-8.651,0 -15.699,4.886 -15.699,13.617l-0,0.16c-0,8.331 6.808,11.134 12.815,12.896c4.726,1.442 8.891,2.323 8.891,4.966l0,0.161c0,1.922 -1.602,3.204 -5.126,3.204c-4.005,-0 -8.891,-1.763 -13.537,-5.127l-5.206,8.01c5.687,4.486 12.415,6.488 18.423,6.488c9.291,0 16.42,-4.325 16.42,-13.857Z" style="fill-rule:nonzero;"/><path d="M786.034,40.791l-0,-10.092c-2.243,-0.721 -4.806,-1.202 -8.651,-1.202c-8.571,0 -13.297,4.326 -13.297,13.777l0,2.724l-5.046,-0l0,10.012l5.046,0l0,32.52l12.176,0l-0,-32.52l9.691,0l0,-9.932l-9.852,-0l0,-1.682c0,-3.204 1.602,-4.646 4.406,-4.646c2.082,-0 3.764,0.4 5.527,1.041Z" style="fill-rule:nonzero;"/><path d="M833.132,67.144l-0,-0.16c-0,-12.336 -9.852,-22.188 -23.149,-22.188c-13.376,0 -23.309,10.013 -23.309,22.348l0,0.16c0,12.335 9.853,22.187 23.149,22.187c13.376,0 23.309,-10.012 23.309,-22.347Zm-12.015,0.16c-0,6.328 -4.165,11.694 -11.134,11.694c-6.728,0 -11.294,-5.526 -11.294,-11.854l0,-0.16c0,-6.328 4.165,-11.695 11.134,-11.695c6.728,0 11.294,5.527 11.294,11.855l-0,0.16Z" style="fill-rule:nonzero;"/><path d="M864.771,57.532l-0,-12.736c-7.209,-0.32 -11.214,3.525 -13.697,9.452l-0,-8.651l-12.175,0l-0,42.933l12.175,0l-0,-15.859c-0,-10.253 4.966,-15.139 13.056,-15.139l0.641,-0Z" style="fill-rule:nonzero;"/></g><g><path d="M519.384,129.074l-12.655,0l-9.372,29.236l-9.772,-29.236l-12.896,0l16.821,43.093c-1.041,2.163 -2.163,2.804 -4.245,2.804c-1.602,-0 -3.605,-0.721 -5.207,-1.682l-4.085,8.811c3.124,1.842 6.408,2.963 10.814,2.963c7.289,0 10.813,-3.284 14.097,-12.015l16.5,-43.974Z" style="fill-rule:nonzero;"/><path d="M565.521,150.621l0,-0.161c0,-12.335 -9.852,-22.187 -23.148,-22.187c-13.377,0 -23.309,10.012 -23.309,22.348l-0,0.16c-0,12.335 9.852,22.187 23.148,22.187c13.377,0 23.309,-10.012 23.309,-22.347Zm-12.015,0.16c0,6.328 -4.165,11.694 -11.133,11.694c-6.729,0 -11.294,-5.527 -11.294,-11.854l-0,-0.161c-0,-6.327 4.165,-11.694 11.133,-11.694c6.729,0 11.294,5.527 11.294,11.855l0,0.16Z" style="fill-rule:nonzero;"/><path d="M610.297,172.007l-0,-42.933l-12.175,0l-0,23.95c-0,5.767 -2.964,8.73 -7.61,8.73c-4.646,0 -7.369,-2.963 -7.369,-8.73l0,-23.95l-12.175,0l0,27.794c0,9.853 5.367,15.94 14.578,15.94c6.168,0 9.772,-3.284 12.576,-6.888l-0,6.087l12.175,0Z" style="fill-rule:nonzero;"/><path d="M644.018,141.009l0,-12.736c-7.209,-0.32 -11.214,3.524 -13.697,9.452l0,-8.651l-12.175,0l0,42.933l12.175,0l0,-15.86c0,-10.252 4.966,-15.138 13.056,-15.138l0.641,-0Z" style="fill-rule:nonzero;"/><path d="M709.619,151.742l0,-0.16c0,-12.175 -6.568,-23.309 -20.906,-23.309c-12.495,0 -21.226,10.093 -21.226,22.348l0,0.16c0,13.136 9.532,22.187 22.428,22.187c7.769,0 13.537,-3.044 17.542,-8.01l-6.969,-6.167c-3.364,3.124 -6.328,4.405 -10.413,4.405c-5.447,0 -9.291,-2.883 -10.493,-8.41l29.877,-0c0.08,-1.122 0.16,-1.842 0.16,-3.044Zm-11.854,-4.566l-18.343,0c0.961,-5.526 4.245,-9.131 9.291,-9.131c5.127,0 8.331,3.685 9.052,9.131Z" style="fill-rule:nonzero;"/><path d="M754.475,129.074l-12.656,0l-9.372,29.236l-9.772,-29.236l-12.896,0l16.821,43.093c-1.041,2.163 -2.162,2.804 -4.245,2.804c-1.602,-0 -3.605,-0.721 -5.206,-1.682l-4.086,8.811c3.124,1.842 6.408,2.963 10.814,2.963c7.289,0 10.813,-3.284 14.097,-12.015l16.501,-43.974Z" style="fill-rule:nonzero;"/><path d="M796.286,151.742l0,-0.16c0,-12.175 -6.568,-23.309 -20.906,-23.309c-12.495,0 -21.226,10.093 -21.226,22.348l0,0.16c0,13.136 9.532,22.187 22.428,22.187c7.77,0 13.537,-3.044 17.542,-8.01l-6.969,-6.167c-3.364,3.124 -6.328,4.405 -10.413,4.405c-5.447,0 -9.291,-2.883 -10.493,-8.41l29.877,-0c0.08,-1.122 0.16,-1.842 0.16,-3.044Zm-11.854,-4.566l-18.343,0c0.961,-5.526 4.245,-9.131 9.291,-9.131c5.127,0 8.331,3.685 9.052,9.131Z" style="fill-rule:nonzero;"/><path d="M833.773,158.951l-0,-0.16c-0,-7.85 -6.969,-10.734 -12.976,-12.736c-4.646,-1.602 -8.731,-2.723 -8.731,-5.126l-0,-0.161c-0,-1.682 1.522,-2.963 4.485,-2.963c3.124,-0 7.369,1.522 11.615,4.005l4.645,-8.411c-4.645,-3.123 -10.573,-4.966 -16.019,-4.966c-8.651,0 -15.7,4.886 -15.7,13.617l0,0.16c0,8.331 6.809,11.134 12.816,12.896c4.726,1.442 8.891,2.323 8.891,4.966l-0,0.161c-0,1.922 -1.602,3.203 -5.126,3.203c-4.005,0 -8.891,-1.762 -13.537,-5.126l-5.206,8.01c5.687,4.486 12.415,6.488 18.422,6.488c9.292,0 16.421,-4.325 16.421,-13.857Z" style="fill-rule:nonzero;"/></g><g><path d="M515.352,235.059l0,-0.16c0,-13.297 -10.012,-21.227 -19.864,-21.227c-8.09,0 -13.297,4.726 -16.821,10.093l0,-9.131l-3.925,-0l0,53.666l3.925,-0l0,-21.627c3.364,5.126 8.651,9.772 16.821,9.772c9.852,0 19.864,-8.09 19.864,-21.386Zm-4.245,0.16c0,10.973 -7.129,17.462 -16.02,17.462c-8.49,-0 -16.66,-7.049 -16.66,-17.542l-0,-0.16c-0,-10.413 8.17,-17.542 16.66,-17.542c8.571,-0 16.02,6.888 16.02,17.622l0,0.16Z" style="fill-rule:nonzero;"/><path d="M559.567,255.484l0,-24.991c0,-9.772 -6.007,-16.821 -16.34,-16.821c-7.449,0 -12.015,3.765 -14.738,8.571l-0,-25.231l-3.925,-0l-0,58.472l3.925,-0l-0,-23.629c-0,-8.491 6.167,-14.578 14.177,-14.578c8.25,-0 12.976,5.527 12.976,13.937l0,24.27l3.925,-0Z" style="fill-rule:nonzero;"/><path d="M609.789,235.059l0,-0.16c0,-11.455 -8.811,-21.227 -20.906,-21.227c-12.175,0 -21.066,9.933 -21.066,21.387l0,0.16c0,11.454 8.811,21.226 20.906,21.226c12.175,0 21.066,-9.932 21.066,-21.386Zm-4.245,0.16c-0,9.612 -6.969,17.542 -16.661,17.542c-9.451,-0 -16.821,-7.85 -16.821,-17.702l0,-0.16c0,-9.612 6.969,-17.542 16.661,-17.542c9.452,-0 16.821,7.85 16.821,17.702l-0,0.16Z" style="fill-rule:nonzero;"/><path d="M639.105,254.763l0,-3.684c-2.323,1.041 -4.005,1.441 -6.007,1.441c-4.726,0 -8.17,-2.082 -8.17,-7.929l-0,-26.353l14.337,-0l0,-3.604l-14.337,-0l-0,-13.057l-3.925,0l-0,13.057l-5.927,-0l-0,3.604l5.927,-0l-0,26.753c-0,7.77 5.126,11.214 11.454,11.214c2.563,-0 4.566,-0.481 6.648,-1.442Z" style="fill-rule:nonzero;"/><path d="M685.803,235.059l-0,-0.16c-0,-11.455 -8.811,-21.227 -20.906,-21.227c-12.175,0 -21.066,9.933 -21.066,21.387l0,0.16c0,11.454 8.811,21.226 20.906,21.226c12.175,0 21.066,-9.932 21.066,-21.386Zm-4.245,0.16c-0,9.612 -6.969,17.542 -16.661,17.542c-9.452,-0 -16.821,-7.85 -16.821,-17.702l0,-0.16c0,-9.612 6.969,-17.542 16.661,-17.542c9.452,-0 16.821,7.85 16.821,17.702l-0,0.16Z" style="fill-rule:nonzero;"/><path d="M732.821,249.156l-0,-34.522l-3.925,-0l0,8.17c-3.364,-4.806 -8.891,-9.132 -17.061,-9.132c-9.852,0 -19.624,7.61 -19.624,19.384l-0,0.16c-0,11.695 9.772,19.224 19.624,19.224c8.09,0 13.537,-4.405 17.061,-9.451l0,5.927c0,10.493 -6.648,15.859 -16.02,15.859c-6.007,0 -11.614,-2.002 -16.5,-5.767l-2.323,3.204c5.607,4.165 11.935,6.248 18.743,6.248c11.615,-0 20.025,-6.889 20.025,-19.304Zm-3.685,-16.02c0,9.292 -8.41,15.54 -16.9,15.54c-8.411,-0 -15.78,-6.408 -15.78,-15.62l0,-0.16c0,-9.532 7.209,-15.459 15.78,-15.459c8.49,-0 16.9,6.088 16.9,15.539l0,0.16Z" style="fill-rule:nonzero;"/><path d="M766.703,218.318l-0,-4.325c-8.09,-0.321 -14.899,4.966 -18.103,12.255l0,-11.614l-3.924,-0l-0,40.85l3.924,-0l0,-16.741c0,-13.296 8.251,-20.425 17.702,-20.425l0.401,0Z" style="fill-rule:nonzero;"/><path d="M803.548,255.484l0,-25.471c0,-10.574 -6.568,-16.02 -17.061,-16.02c-5.607,-0 -10.012,1.442 -14.498,3.524l1.442,3.444c3.765,-1.922 7.85,-3.284 12.816,-3.284c8.41,0 13.457,4.246 13.457,12.496l-0,1.762c-3.925,-1.041 -7.85,-1.762 -13.537,-1.762c-10.573,-0 -17.862,4.806 -17.862,13.296l-0,0.16c-0,8.491 8.17,12.816 15.779,12.816c7.77,0 12.816,-3.845 15.62,-7.769l-0,6.808l3.844,-0Zm-3.764,-15.299c-0,7.449 -7.129,12.576 -15.459,12.576c-6.248,-0 -11.855,-3.445 -11.855,-9.372l-0,-0.16c-0,-5.687 4.806,-9.532 13.457,-9.532c5.847,0 10.412,0.961 13.857,1.842l-0,4.646Z" style="fill-rule:nonzero;"/><path d="M855.212,235.059l0,-0.16c0,-13.297 -10.012,-21.227 -19.864,-21.227c-8.09,0 -13.297,4.726 -16.821,10.093l-0,-9.131l-3.925,-0l-0,53.666l3.925,-0l-0,-21.627c3.364,5.126 8.65,9.772 16.821,9.772c9.852,0 19.864,-8.09 19.864,-21.386Zm-4.245,0.16c-0,10.973 -7.129,17.462 -16.02,17.462c-8.49,-0 -16.66,-7.049 -16.66,-17.542l-0,-0.16c-0,-10.413 8.17,-17.542 16.66,-17.542c8.571,-0 16.02,6.888 16.02,17.622l-0,0.16Z" style="fill-rule:nonzero;"/><path d="M899.427,255.484l-0,-24.991c-0,-9.772 -6.008,-16.821 -16.34,-16.821c-7.45,0 -12.015,3.765 -14.739,8.571l0,-25.231l-3.925,-0l0,58.472l3.925,-0l0,-23.629c0,-8.491 6.168,-14.578 14.178,-14.578c8.25,-0 12.976,5.527 12.976,13.937l-0,24.27l3.925,-0Z" style="fill-rule:nonzero;"/><path d="M945.564,214.634l-4.326,-0l-14.738,36.525l-16.981,-36.525l-4.565,-0l19.624,40.61c-3.044,7.128 -5.847,9.612 -10.093,9.612c-3.043,-0 -4.806,-0.481 -6.968,-1.522l-1.362,3.444c2.723,1.201 4.966,1.762 8.09,1.762c5.847,0 10.012,-3.044 13.617,-11.614l17.702,-42.292Z" style="fill-rule:nonzero;"/></g></g></g></svg>