<svg xmlns="http://www.w3.org/2000/svg" viewBox="0 0 4480 3552.82"><g data-name="Layer 2"><g data-name="Layer 1"><path d="m1117.43 638.28 19.14-18.28c-15-17.41-9.82-31.54 6.84-43.94 3.54-2.63 7.71-7.37 7.8-11.22.51-22.28 14.85-23.48 31.88-23.42 83 .33 166 .13 249 .18 10.73 0 20.72 1 27.33-11.56 2.56-4.86 12.62-7.65 19.45-8 18.83-1 37.77-.61 56.65 0 5 .16 13.17 1.94 14.3 5 6.74 18.48 21.81 14.53 35.35 14.61 81 .46 162 1 243 .88 14.93 0 24.88 1.84 25.11 20.07.07 5.38 6.77 10.67 11.07 16.94l473-424.5-2-5c-7-.32-13.94-.9-20.91-.93q-89.09-.33-178.17-.47c-9.53 0-19.63 1.58-19.42-13.29.19-13.43 5.58-19.32 19.64-18.83 23.44.8 46.93.21 71.43.21 2.06-14.92 3-27.64 5.79-39.93 2-8.69 7.26-16.6 9.5-25.27 2-7.82 3.8-16.69 1.88-24.12-.93-3.58-10.65-7-16.31-6.87-24.93.59-49.87 2.11-74.75 4-42.14 3.25-58.88 21.27-59 63 0 18.21-.33 36.49 1.05 54.62 2 26.94 19.18 42.67 46.42 43.13 45.88.79 91.77.92 137.66 1.52 6.89.09 13.77 1.2 26.22 2.36l-230.91 202.98-5.57-1.6c3.23-53.46 5.67-107 10.19-160.33 1.28-15 8.65-29.52 14.57-48.6-23-37.07-11.06-84.2-9.16-129.69.86-20.6 26.33-38.46 50.22-40.15 31.62-2.24 63.35-2.91 95-4.1 4-.15 9.13-.8 11.9 1.26 25.19 18.74 53.08 8.26 80 8.17q162-.55 323.94-1.05c11.9 0 24.51 2.59 31.88-11.39 1.45-2.74 7.05-4.77 10.67-4.67 34.95 1 70.21.14 104.73 4.71 27.72 3.66 45.54 28.37 46.42 56.25.79 24.93 0 49.91.46 74.85.36 20-4.85 37.31-23.16 51 21.69 13 23.37 33 23.14 54.41-.52 49-.17 98-.17 151l-227-207.67h123c14.16 0 28.44 1.27 42.47-.11 30.9-3 48.91-23.77 47.56-54.21-1.08-24.21-2.71-48.43-5.22-72.53-2.3-22-15.25-36.94-37.16-39.34-31.89-3.49-64.1-4.14-102.39-6.36 6.15 33.26 11.47 62 17.91 96.75 18.54 0 39.22-1.16 59.66.58 7.95.68 18.4 6.06 22.32 12.55 7.46 12.33-.38 22.5-16.65 22.94-58 1.55-116 2.57-174 3.75-7.2.15-14.4 0-23.84 4.7 16.81 15.74 33.44 31.67 50.45 47.19 76.22 69.58 153.43 138.11 228.64 208.77q151.1 141.95 299.26 287c26.13 25.74 46.7 57.62 67.16 88.45 12.86 19.38 29.94 12.11 45.22 11.13 5.07-.33 11.65-13.71 13.47-22 10-45.74-1.06-45.07 54.73-45.83 27-.37 54 .48 81-.3 13.95-.41 21.54 5.14 24.44 18.37 1 4.59 2.79 9 3.93 13.56 9.45 38 9.43 38.36 49.87 37.51 27.58-.59 47.88 10.26 61.46 34.35 8.27 14.69 18.58 13.81 28.2-.27 6.2-9.06 16.88-15.31 22.06-24.74 6.34-11.53 9-25.07 14.49-41.26l30.56-5.3c-7-9.63-16.69-17.5-18-26.62-1.22-8.12 6.82-17.63 11.58-28.33-17.19-9.95-19.31-23.34.43-38.51-17.36-14.85-21.76-29.77 2.64-43.28-17.14-13.82-26.05-26.89.73-36.57 1.17-.42 2.82-1.55 3-2.55 4.41-29.61 27.3-21.89 45.44-21.87q295.59.32 591.19 1.25c10.78 0 21.94 3 32.26 1 27.47-5.19 37.09 18.27 52.92 31.4 2.34 1.93 1.35 10.37-.7 14.51-3.22 6.5-8.65 11.89-14.23 19.18 18.5 9.51 22.5 22.75 6.83 38.19 27.46 21.74 27.46 21.74 2.43 51.6 10.84 11.12 20.12 23.34 2.09 36.86-1.68 1.26-.42 7.23.34 10.83 4.72 22.25 15.6 39.08 31.5 57 16.43 18.51 30.77 24.08 52.27 22.4a178.39 178.39 0 0 1 18.21 0c22.79.54 32.35 8.92 33.39 31.34.87 18.85.12 37.76.13 56.65q.16 956.67.47 1913.32c0 66.75 1.78 133.51 3 200.26.49 26.7-13.75 44.67-44.21 47.84-29.34 3.05-59.14 2.45-88.73 2.41q-297.61-.41-595.22-1.25c-102.58-.18-205.17.42-307.75-.36-17.24-.13-28.52 5.33-39.72 18.15-191.36 218.87-429.74 361.42-715 413.27-474.26 86.21-877.4-52.74-1205.76-406-14.7-15.82-28.73-22.42-50.08-22.37q-577 1.35-1154 1.07c-68.63-.08-137.46-2.67-205.81-8.59-49.89-4.33-71.12-32.85-71.19-83Q1.18 1991.65 0 974.26q-.06-52.59 2.25-105.18c1.11-24.56 13.39-33.67 38-33.41 47.23.48 94.47-.11 141.71.09 10 0 15-3.17 14.63-13.93-.5-14.76-.13-29.56-.13-46.52-25.73 1.31-25.52-15.17-24.68-33.5 1.36-29.65 1.87-59.37 1.74-89-.07-15.6 5.41-24.41 20.8-30.06 10.36-3.8 17.86-14.79 27.84-20.44 9.26-5.25 20.09-10.78 30.27-10.87 96.5-.84 193-.55 289.52-.56 23.62 0 47.27.81 70.86-.14 16-.65 28.39 1.94 37.46 17.27 5.56 9.4 14.89 16.11 26 3.09 3-3.57 11-3.87 16.8-4 19.56-.46 39.17-.86 58.7 0 13.73.64 20.35-3.92 19.39-18.15a91.1 91.1 0 0 1 .56-16.17c1.65-15 9.84-23.07 25.34-23 66 .06 132-.18 198 .28 25.26.17 34 9.37 32 35.34-1.31 16.95 3.65 23.52 20.8 22.19 12.73-1 25.66.85 38.42.09 18.77-1.17 32.5 2.9 31.15 30.6ZM1647.11 937c-6.71-19.67-20.92-14.08-31.82-14.12l-1574.54-6c-20.95-.1-25 8.12-24.77 25.8 1.22 110.62 1.94 221.25 2.92 331.88.27 30.75.42 30.74 32 29.7q8.05-.26 16.1-.26h826.38c-16-40.39-21.63-78.85-9.51-118.77s34.69-71.68 69.93-93.36c59.1-36.36 121-36.6 177.5 1.36 75.09 50.42 93.37 122.89 63.38 208.6 5.3.81 9.14 1.9 13 1.9 80.28.09 160.56-.17 240.84.28 13 .07 17.11-5.69 19.76-17.31 13.15-57.73 23.83-116.31 41.59-172.63 23.53-74.49 58.05-143.14 137.24-177.07Zm1595.52 9.68c47.26 29.6 72.35 75.76 88.48 126.55 21.6 68 41 136.77 59.13 205.79 5.25 20 14 24.66 33.16 24.57q225.72-1.07 451.45-.25 281.34 1 562.66 3.5c14.41.11 23.89-.38 23.77-19.86-.68-112-.27-224 .41-336.06.09-14.8-3.93-19.68-19.39-19.67q-404.88.24-809.77-.59-182.19-.25-364.4-1c-11.13-.03-22.33-.98-25.5 16.99ZM2442 921.22v2.88c129.53 0 259.06-.23 388.59.06 121.43.28 242.86 1.33 364.29 1.58 36.91.08 41.87-6.82 27.38-40.49-33.71-78.33-83.46-146.1-141.54-207.88-5-5.37-15.54-7.94-23.49-7.9-269.83 1.09-539.65 3-809.47 4-130.17.5-260.39 1.39-390.49-2-40.85-1-65.59 13.46-89 44.27-40.45 53.33-82.06 105.51-104.31 169.76-10.48 30.24-6.65 35.58 25.15 35.6q376.5.24 752.89.12Zm-1000.17 546.64c259.8-296.32 579.82-466.21 975.89-471.53 395.56-5.31 724 148.92 991.06 443.3-.4-6-.11-9.17-.87-12-28.5-106.71-55.89-213.74-86.39-319.88-9.76-34-25-67.21-42.9-97.72-17.43-29.68-41.37-55.65-81.08-55.65-107.95 0-215.9.42-323.84-.24-220.58-1.34-441.15-3.4-661.73-5-172-1.21-344-1.76-516-3.5-25.62-.26-47 7.13-68.2 20.55-54.1 34.33-78.34 88.41-94.53 146.07-22.57 80.34-41.15 161.81-61.7 242.72-9.61 37.72-19.8 75.26-29.71 112.88ZM25.33 2914.09c0 35 .11 65.83 0 96.68-.17 35.32 4.19 42.4 37.09 55.74 8 3.26 16.71 6.19 25.26 6.74 48.38 3.12 96.81 7.77 145.21 7.7q591.24-.82 1182.46-3.24h28.69c-6.28-9.2-9.57-14.1-12.94-18.94-24.65-35.43-50.08-70.36-73.58-106.53-8.49-13.06-17.53-17.44-32.74-17.47q-599.32-1.36-1198.66-3.71c-33.28-.13-67.54 5.85-100.79-16.97Zm3413.72 163.07h30.75q462.54-.19 925.1-.51c12.76 0 26.17.18 38.07-3.56 9.1-2.86 22.84-11.39 23.25-18.08 2.26-37.28 1.08-74.76 1.08-112.11-11.77 2.38-22.1 6.2-32.44 6.23-31 .11-62-1.86-93-2q-392.71-1.24-785.44-1.48c-8.72 0-20.29 6.6-25.68 13.78-24.69 32.86-47.68 67-71.21 100.75-2.89 4.25-5.39 8.75-10.48 16.98Zm266.25-842.92c-2.86-30.37-6.81-87.36-13.9-143.95-12-95.6-38.48-187.57-74.75-276.73-61.53-151.24-147.17-287.29-262.41-403.13-52.41-52.68-108-102.82-166.5-148.65-93.79-73.54-196.6-133.29-308.67-175-110.92-41.24-225.27-67.88-343.85-76.61-112.72-8.29-224.38-3.16-335 19.11-146 29.37-282.7 83-410.83 159.17-155.07 92.2-284.81 211.93-387.75 359.49-63.34 90.8-116.59 187.76-152.51 293.31-33.07 97.17-58.41 196.2-68.84 298.44-8.21 80.38-14.37 161.1-4.41 241.81 7.52 61 13.6 122.51 26.32 182.51 16.84 79.38 43 156.26 77.13 230.3 69.11 149.89 163.56 280.86 283.92 394.16 61.85 58.22 125.49 112.25 200 154.31 82.6 46.63 165.44 91.93 255 124a1258.73 1258.73 0 0 0 319 69.24c93.59 8 186.84 6.71 279.53-6.28 118-16.52 232.37-47.75 341-97.32 121.79-55.57 236.88-121.29 332.26-217.93 78.4-79.44 152-162.61 211.54-257.19 133.86-212.62 200.75-445.04 203.72-723.06Zm-2701.88-450c-2.09 73.14-2.9 143.24-6.45 213.2-2.86 56.25-13.43 110.34-64.16 146.23-12.66 9-24.84 18.58-37.4 27.69-103.88 75.31-142.54 213.9-100.91 317.61 65.75 163.83 247.81 226.73 397.27 134.13 6-3.73 14-11.52 13.64-16.92-1-14.09-6-27.91-10-44-8.4 5.87-13.83 9.69-19.29 13.47-32.86 22.83-69.32 36.42-109.13 38.92C947 2622 849 2539.8 834.45 2415c-13.38-115.1 67.36-213.64 173.52-233.23 16.31-3 21.88-9.62 22.24-26.41 2.54-117.31 6.17-234.61 9.34-351.91.17-6.4-.6-12.81-1-20.87Zm41.08-403.3c81.68.2 148.06-66.71 148.35-149.56.28-82.39-65.66-151-145.1-150.89-86.77.08-154.75 66-155 150.39-.3 84.93 65.32 149.81 151.75 150.03Zm3.41 1166.57c45.83.26 85.4-18.34 115.69-52.76 11.15-12.67 14.84-25.82 13-42.48-4.79-42.8-7.66-85.82-12.69-128.6a47.39 47.39 0 0 0-12.63-26c-45.24-45.34-117.49-53.5-173.65-20.71-57 33.26-84.42 100.54-67.6 165.65 15.57 60.32 73.65 104.5 137.88 104.87ZM3619.19 680.07c.24 3.75.48 7.49.71 11.24 11 2.86 21.88 7.89 32.92 8.19 45.82 1.24 91.7.23 137.52 1.53q249.55 7.13 499.08 15.61c21.94.78 36.42-8 52.44-26.77-13.73-4.36-24.75-10.81-35.87-11q-329.62-4.6-659.28-7.49c-9.15-.04-18.35 5.68-27.52 8.69Zm-3.35-30.47c13.55 4.09 24.39 10.1 35.32 10.25 213.83 3 427.67 5.06 641.49 8 17.24.24 29.58-4.43 40.44-22.13-12.3-3.44-22.82-8.1-33.66-9-16.72-1.44-33.67-.11-50.52-.36q-293.4-4.39-586.79-9.3c-17.65-.37-31.57 2.99-46.28 22.54ZM1140.6 634.74l-.22 12.49c10 2.89 20 8.26 30 8.29 201.76.53 403.52.25 605.29.76 23.5.06 33.11-15.19 47.42-33.79-12.93 0-21.55-.07-30.17 0-107.25 1-214.5 2.27-321.75 3-95.13.62-190.26.26-285.39 1.26-15.07.15-30.11 5.25-45.18 7.99Zm2478.31 98.33c12 4.65 22.55 12.13 33.24 12.33 88.89 1.67 177.8 2.07 266.71 2.69q196 1.38 391.94 2.23c7 0 14-4.73 20.95-7.26q-.53-5.13-1-10.26c-14.55-2.06-29.06-5.59-43.65-5.95-165.06-4.16-330.13-7.58-495.18-11.8-47.12-1.2-94.23-3.74-141.27-6.91-16.08-1.08-23.24 7.04-31.74 24.93Zm-2476.34-51.65-.2 11.19c8.68 2.36 17.34 6.76 26 6.78 188.14.61 376.28.33 564.42 1.49 22.29.14 32.41-10.54 44.5-31.28-16.89 0-30-.05-43.21 0q-136.56.64-273.12 1.35c-93.66.54-187.33.92-281 2.23-12.47.19-24.91 5.37-37.39 8.24ZM24.53 863.76c35.35 7.35 1614.71 6.83 1625.19-1.9-7.61-.41-13.49-1-19.38-1-129.56-.5-259.11-.68-388.66-1.43q-492.93-2.85-985.85-6.14c-68.82-.45-137.64-1.57-206.47-1.92-9.54-.06-22.36-3.68-24.83 12.39Zm4343.53-20.63c-6.84-18-19.24-22.75-35.55-22.48-60.68 1-121.37 2-182.07 2.32q-145.68.75-291.36.54c-90.34-.28-180.68-1.38-271-2.37-13.48-.15-21.62 4.08-21.46 22Zm-742.39-244.84-.6 9.55c8.17 2.74 16.29 7.65 24.53 7.86 58.61 1.47 117.25 1.82 175.88 2.82q235.5 4 471 8.47c18.26.37 28.25-8.67 38.47-25-9-1.58-15.85-3.79-22.75-3.86q-184-1.75-367.94-3-148.62-1-297.25-1.16c-7.12-.03-14.23 2.81-21.34 4.32Zm831 277.77 1.2-7.72c-5.18-1.84-10.36-5.28-15.54-5.28-400.15-.25-800.3-.23-1206.85-.23 9 5.59 13.1 9.51 17.85 10.67 5.74 1.41 12.06.56 18.13.57l1155.71 2q14.74.01 29.48-.01ZM1093 1782.37c0 57.65.28 112.12-.07 166.58-.46 70.73-1.65 141.45-1.84 212.18 0 6.92 2.9 18 7.59 20.06 19.41 8.67 40 14.64 66.3 23.7-2.28-19.63 1.57-41-7.35-52.43-21.51-27.49-33.49-56.35-33.47-90.68q.06-127.31.37-254.62v-22.83ZM735.64 690.87h-.46c0 18.15.17 36.31-.06 54.47-.13 9.72 1 16.87 13.76 16.93s14.1-7.39 13.83-16.93c-1-36.27-1.65-72.57-3.7-108.79-.27-4.65-8-8.87-12.35-13.29-3.67 4.38-10.21 8.56-10.52 13.17-1.23 18.07-.5 36.28-.5 54.44Zm106.81-65.08v133.64c16 6 22.12 2.66 22.32-12.92.42-33.67 2.11-67.33 3.44-101 .91-23.25-.34-24.31-25.76-19.72Zm168.11 133.56c0-41.46.4-82.26-.58-123-.1-4.39-8.19-8.58-12.58-12.86-3.92 4.69-11.12 9.28-11.26 14.08-1 34.84 0 69.73-.84 104.58-.41 17.27 5.43 23.85 25.26 17.2ZM877 689.77h.62c0 20.22-.68 40.49.54 60.64.26 4.32 6.78 10 11.56 11.59 2.49.81 10.81-6 10.82-9.45q0-58.6-2.35-117.19c-.16-3.94-6.77-7.61-10.38-11.41-3.61 4.41-10 8.62-10.32 13.26-1.25 17.44-.49 35.03-.49 52.56Zm-47.55 69.69v-133.9c-14.87-5.09-21.73-2.21-21.83 14.59-.21 34.3-1.54 68.61-3.32 102.86-.98 18.45 6.7 22.6 25.13 16.45Zm85.28-134.12c0 42.89-.14 83.69.08 124.49.08 14.69 8.8 13.7 22.61 8.64 0-36.74-.26-74.21.09-111.68.22-24.97-.13-25.55-22.8-21.45ZM949.48 760c11.27 2.17 20.93 5.16 21.34-10.28 1-37.62 2.61-75.24 2.71-112.86 0-4.46-7.87-8.93-12.1-13.39-4 4-11.34 8-11.43 12.17-.86 40.92-.52 81.85-.52 124.36ZM772.07 624.31c0 20.73-.42 38.91.11 57.06.66 22.91 1.74 45.82 3.55 68.67.31 4 5.11 7.61 7.83 11.41 2.68-3.83 7.14-7.41 7.68-11.52 1.22-9.29.2-18.86.64-28.29 1.48-32.06 3.2-64.1 4.88-97.33Zm271.5 69.58h-.74c0-18.81.66-37.65-.46-56.39-.29-4.78-6.23-9.21-9.58-13.8-3.18 4.22-9.13 8.46-9.1 12.66.24 38.26 1.29 76.52 2.9 114.74.15 3.51 5.9 6.78 9 10.15 2.65-3.65 7.42-7.21 7.58-11 .83-18.73.4-37.56.4-56.36Zm-336.91-68c0 40.95-.24 80.69.31 120.42.07 4.93 4.35 9.8 6.68 14.7 3-4.93 8.33-9.74 8.62-14.82 2-35.65 2.59-71.38 4.35-107 .71-14.67-5.2-18.19-19.96-13.33Zm376.84 66.48c-.94 19.44-2.39 37.53-2.27 55.61 0 4.37 5.27 8.71 8.12 13.06 3-4.26 8.42-8.45 8.54-12.79q1.52-54.32 1-108.66c0-4.26-5.59-8.47-8.59-12.69-2.26 4.15-6.3 8.23-6.47 12.47-.74 18.06-.33 36.19-.33 52.97Zm-23.81 68c3.65-1.78 5.66-2.24 5.71-2.86 3.35-41.4 6.75-82.8 9.28-124.25.19-3.09-6-6.57-9.25-9.87-3.53 3.64-10 7.18-10.1 10.92-.58 18.79.31 37.63 1.05 56.44.9 22.89 2.16 45.75 3.31 69.63Zm2343 36.61c.33-2.08.67-4.15 1-6.23-2.05-1.42-4.06-4-6.18-4.08-41.06-1.74-82.13-3.38-123.21-4.36-3.1-.08-6.32 4.88-9.48 7.5 3.25 2.38 6.45 6.75 9.75 6.83 26.28.57 52.58.33 78.87.34Zm-1809.25-82.46c4.44 20.17 6.6 34.06 11.46 46.93.63 1.65 21.27-.07 22.42-3.58 3.57-10.87 5.84-25.06 1.4-34.59-2.67-5.71-18.83-5.12-35.28-8.76Zm-34.8.94-6.28 6.56c3.77 13.18 6.33 27 12.26 39.07 1.29 2.64 21.09.47 21.39-1.32 2-12.06 4.13-25.86-.19-36.5-2.18-5.39-17.69-5.38-27.18-7.81ZM683.3 759.72l8.75.59V627.75c-11.51 43.66-9.38 87.84-8.75 131.97ZM1640.06 741c.1 9.67-5.8 22.23 12.66 22.64 13 .3 21.69-2.78 18.84-17.54-2-10.46 9.24-26.92-12.79-29.32-20.16-2.24-19.2 10.83-18.71 24.22Zm-94 .24c1.12-13.8.61-24.93-18.93-24.56-18.56.35-15.59 11.81-15.74 23.05-.17 12.61-1.07 23.56 18 23.16 17.08-.39 18.49-8.8 16.61-21.68Zm-305.4-5.84c1.48 11.77-2.46 26.72 18 26.63 14.55-.06 16.85-8.49 15.63-19.6-1.3-11.82 2-26.59-18.58-26.28-14.71.19-16.85 7.42-15.1 19.22Zm69.27 24.71c9.28-42.06 5.12-48.14-26.89-40.55-4.04 33.21 2.12 43.12 26.84 40.52Zm194.44 1.13c-3-15.84-4.64-29.73-9-42.74-.65-2-19.38-1.26-19.79.51-3.13 13.48-3.77 27.53-5.27 42.23Zm-39.6-.17c-10.06-15.27 13.18-38.54-15.75-43.68-22.48-4-13.64 16.11-14.88 26.79-2.45 20.44 11.41 18.82 30.58 16.82Zm-263.37-43.55c1.1 15.68 2 29.28 3 42.43 29.14 3.42 32.88-3.76 23.64-42.43Zm-71.85-18.39c-9.16-12.26-9.16-12.26 5.12-38.81l-16.14-9.89v103.31l6.1 1.08c1.44-16.26 2.87-32.52 4.92-55.69Zm222.57 17.1c-10.77 1.78-25.36 1-26.92 5.1-3.71 9.82-4 23-.21 32.75 2 5.18 15.21 6 25.48 9.59.77-10.22 1.42-16.1 1.6-22 .22-7.22.05-14.46.05-25.44Zm329.16 23.35c2 8.27-6.75 23.88 13.19 23.52 18.41-.33 13.67-14.87 14-25.27.28-9.11 4.35-20.91-12.66-21.34-17.81-.49-14.42 11.42-14.53 23.09Zm-257.41 21.86c0-12 1.49-22.31-.61-31.8-1.08-4.89-8.11-10.76-13.25-11.65-3.36-.59-10.94 6.42-11.73 10.89-1.8 10.18-.57 20.88-.57 32.56Zm-66.79-18.86c5.66 6.6 10.73 18.08 17.11 18.87 18.79 2.31 12.74-14.36 13.85-24.28 1-8.74 3.66-19.45-11.76-20.11-17.82-.77-14.28 11.58-19.2 25.52Zm-189.46 18.3c25 1.16 31.57-8.37 24.56-34.37-1.17-4.32-8.8-8.89-13.87-9.45-3.15-.34-9.61 6.31-10.2 10.44-1.49 10.5-.49 21.28-.49 33.38Zm-937.95 43.85h.64c.37-6.73 1.93-13.7.66-20.11-.76-3.84-5.92-6.81-9.1-10.17-3 3.52-8.54 7-8.59 10.58a342.9 342.9 0 0 0 2.47 42.35c.31 2.81 4.58 5.19 7 7.77 2.3-2.73 6.19-5.25 6.59-8.23.99-7.27.33-14.77.33-22.19Zm280.53 5.36-3.2-1.37c0-5.39 1.19-11.15-.32-16.09-1.6-5.23-5.76-9.69-8.8-14.49-2.35 4.59-5.73 9-6.77 13.84a40.8 40.8 0 0 0 .37 16.09c1.91 9.54 4.77 18.9 7.23 28.33Zm-140.41-1.6-3.44-1c0-6.05 1.11-12.39-.34-18.08-1.23-4.87-5.4-9-8.26-13.46-2.67 4.36-6.63 8.42-7.69 13.14a44.85 44.85 0 0 0 .12 18.06c2 9.92-6.74 24.4 9.9 27.47 1.57.26 6.39-17.01 9.71-26.13ZM1226.26 583c0 4.68-1 9.63.28 14 1.2 4.15 4.69 7.65 7.18 11.44 3-3.95 7.41-7.53 8.56-11.95a38.59 38.59 0 0 0 0-17.88c-1.71-7.25-5.3-14.06-8.08-21.07-2.62 7.17-5.29 14.32-7.79 21.52-.41 1.16-.11 2.61-.15 3.94Zm-45.06-31.12c-14.73 13.58-20.59 44.44-14 53.17 1.63 2.17 5.53 3.46 8.43 3.53 1.82 0 5.28-2.89 5.32-4.56.41-15.81.25-31.65.25-52.13ZM402.71 839.12c12.72-12.26 15.82-54.42 7.53-60.28-1.63-1.16-10.33 3.17-10.31 4.91.19 17.13 1.53 34.25 2.78 55.37Zm1014.07-255.19h-.31c0-4.65 1.14-9.71-.3-13.86-1.62-4.68-5.57-8.55-8.51-12.78-2.84 4.36-7.48 8.47-8.14 13.14a77.31 77.31 0 0 0 .6 25.8c.87 4.27 6.35 7.61 9.75 11.36 2.3-3.89 5.38-7.54 6.68-11.75 1.12-3.64.23-7.91.23-11.91Zm30.53 24.53c6.48-2.25 15.39-3.67 15.53-5.67.87-13.21.15-26.57-.89-39.81-.15-2-5.42-5.54-7.1-4.94-3 1.07-7 4.64-7.21 7.37-.74 13.22-.33 26.51-.33 43.05Zm125.42-26.25c4.75 8.78 9.23 23.15 13 23 16.44-.82 8.33-15.25 8.1-23.49-.21-8-5.62-15.9-8.74-23.84-3.77 7.37-7.53 14.78-12.36 24.33Zm-21.08-.19-2.65-1.12c.17-2.66 1.19-5.64.33-7.9-2-5.25-4.92-10.14-7.46-15.18-2.49 4.62-5.29 9.11-7.32 13.92a13.82 13.82 0 0 0-.6 7.88c2 9 4.44 17.91 6.71 26.86Zm76.9-1.39c0 5.4-1 11.08.35 16.09 1 3.57 5.2 6.25 8 9.32 3.12-3.4 8.45-6.53 8.92-10.25a109.75 109.75 0 0 0-.48-28.22c-.48-3.48-5.18-6.38-8-9.55-2.94 2.82-7.27 5.15-8.48 8.57-1.46 4.2-.33 9.32-.31 14.04Zm-185.65 2.25-2.53-1.19c0-3.36 1.05-7.21-.22-10-2.34-5.11-6-9.6-9.18-14.35-2.87 4.37-6.36 8.48-8.38 13.22-1.21 2.83-.88 6.86.06 10 2.76 9 6.16 17.89 9.31 26.81q5.48-12.25 10.94-24.49Zm324.06-.22-3.39-1.85c.16-3.35 1.34-7.09.24-10-1.79-4.68-5.07-8.8-7.72-13.15-2.73 4.38-5.85 8.58-8 13.21-1.06 2.23-.94 5.4-.39 7.94 1.88 8.78 4.18 17.48 6.32 26.2ZM1353.62 585c.06.93-.49 7.22 1.08 12.92 1 3.63 5.14 6.38 7.88 9.52 2.82-3.62 7.83-7.11 8.05-10.89a133.23 133.23 0 0 0-1.91-30.09c-.58-3.4-5.38-6.09-8.26-9.11-2.28 2.8-5.74 5.3-6.55 8.48-1.14 4.38-.29 9.31-.29 19.17Zm-10.08-27.38-11.82-.22c-.15 15.56-.49 31.13-.08 46.68 0 1.18 5.76 3.56 8.2 2.93s5.57-4.42 5.54-6.79c-.16-14.22-1.14-28.43-1.84-42.63Zm-719 249.17 3.67 1.43c0 6.69-.83 13.53.33 20 .61 3.42 4.69 6.22 7.2 9.3 2.41-3.24 6.31-6.23 6.9-9.77a61.29 61.29 0 0 0 0-20c-1.61-9.45-4.6-18.67-7-28q-5.57 13.51-11.1 27.01Zm1052.62-226h.21c0 4-.84 8.24.22 11.94 1.28 4.5 4.16 8.56 6.34 12.81 2.91-4.29 7.25-8.22 8.4-12.94a95.59 95.59 0 0 0 2.57-25.73c-.12-3.08-5.82-8.87-7.55-8.39a16.84 16.84 0 0 0-9.82 8.48c-1.68 3.87-.37 9.09-.37 13.75ZM477.78 835.86v-58.62c-11.78 11.84-13.11 39.85 0 58.62Zm65.21.4c13.93-20.26 11.81-47.57 0-58.41Zm-243.91 1.41c-2.09-22.7 2.11-42.47-5.27-66.9-12.28 23.65-10.01 55.23 5.27 66.9Zm1372.06-255.16-2.86-1c.29-3.31 1.54-6.91.65-9.88-1.44-4.81-4.27-9.2-6.51-13.77-3.3 4.39-7.24 8.47-9.65 13.31-1.31 2.61-.71 6.74.24 9.81 2.58 8.38 5.81 16.57 8.78 24.84l9.35-23.31ZM381.19 834.28c11.74-25.41 10.3-49.46 0-57.49Zm1448.61-252c0-4.88 1-10.48-.32-15.46-1.09-4.12-5-7.5-7.59-11.21-2.23 3.49-6.14 6.86-6.37 10.47a137.77 137.77 0 0 0 1 29.91c.56 3.55 6 6.32 9.22 9.45 1.87-3.6 4.65-7 5.34-10.83s-.72-7.92-1.28-12.37Zm-210.45 1.29h-.14c0-4.7 1.29-9.92-.34-14-1.83-4.52-6.3-8-9.62-11.87-2.7 4.32-7.43 8.54-7.67 13-.46 8.58 1 17.45 3 25.88.85 3.56 5.12 6.29 7.83 9.4 2.33-3.45 5.52-6.63 6.72-10.43s.22-7.99.22-12.02ZM608.43 838.92c12.47-12.66 13-44.84 0-63.42Zm1180.85-257-11.2-25.28c-2.69 8.41-7.33 16.79-7.5 25.26-.15 7.69 4.55 15.48 7.11 23.24Zm22.07-.92-2.35-1c0-2 .54-4.23-.09-6-2.13-6.07-4.66-12-7-18-2.63 5.72-5.44 11.37-7.78 17.2a9.86 9.86 0 0 0 0 6c2.55 8.62 5.38 17.17 8.11 25.74q4.53-11.94 9.11-23.94Zm-91.51 1.15-2.72-1.2c0-2.67.79-5.66-.16-7.94-2.12-5.1-5.1-9.85-7.74-14.74-2.5 4.6-5.37 9-7.35 13.87a13 13 0 0 0-.1 7.92c2.39 8.48 5.24 16.83 7.92 25.23Zm-533.21-29.55c2.11 22.2 3.7 38.86 5.29 55.52 13.44-18.61 11.38-42.01-5.29-55.52Zm339 6.17c-3.68-.27-7.33-.62-7.34-.54-1.82 15.19-3.46 30.39-4.66 45.64 0 .54 5.22 2.72 6.6 1.87 2.38-1.47 5-4.68 5.16-7.26.55-12.61.27-25.26.27-39.71Zm200.66 20.56h-.45c0 4.71-1 9.72.29 14s4.9 7.72 7.5 11.54c2.23-3.56 6-6.95 6.4-10.71a151.81 151.81 0 0 0 .49-28.2c-.2-2.82-4.18-5.37-6.42-8-2.61 2.42-6.61 4.43-7.48 7.37-1.25 4.31-.3 9.3-.3 14Zm-238.58 3.31-2.61-1c0-2 .53-4.23-.09-6-2.1-6.13-4.59-12.13-6.94-18.18-2.48 5.76-5.13 11.45-7.33 17.31a10.46 10.46 0 0 0 0 6c2.4 8.64 5 17.2 7.61 25.8Zm-207.8-30c-12.76 20.59-12.46 43.76 0 56.86Zm22.64 5.1h-10.65c-.5 15.19-1.15 30.38-1.21 45.56 0 1.32 4 3.71 6 3.66s5.53-2.61 5.58-4.14c.48-15.02.31-30.04.31-45.05Zm80.88 49.57 8.23-.82c0-14.22.27-28.46-.3-42.66-.08-2.21-3.74-5.13-6.34-6.06-1.59-.56-6.18 2-6.25 3.24-.77 15.79-4.07 32.13 4.69 46.33Zm186.83-24.21h.17c0-4.71 1.06-9.75-.3-14-1.3-4.1-5.1-7.42-7.81-11.07-2.12 3.61-5.67 7.06-6.09 10.86a127.67 127.67 0 0 0-.13 26.15c.37 3.81 3.78 7.33 5.81 11 2.78-3.6 6.49-6.84 8.07-10.9 1.39-3.53.31-7.98.31-12.01Zm-61.43-1.71-10.43-23.64c-2.41 8-6.67 16-6.73 24-.06 8.19 4 16.41 6.27 24.61 3.42-7.73 6.81-15.5 10.92-24.94Zm-1076 196-9.62.89 5.31 55.9 4.31-.63ZM1148 759.71l6.8.51v-39.09c-22.68 11.7-10.35 25.7-6.8 38.58ZM526.63 779c-10.42 19.22-8.2 48.7 0 55.56Zm-72.95-.16-5.19.08v54.59h5.19Zm-116.09-1.59c-11.56 22.47-9.41 49.27 0 57.11Zm975.77-170.65h6.23v-48.78l-6.23.08Zm-1047.94 227 4.44-.28v-56.5l-4.44.27Zm302.08 1.85 4-.55v-55.15l-4 .4Zm-321-2.47 4.11-.21v-56l-4.11.22Zm1013.43-274.64-6 .21v48.63l6-.06ZM315.07 778.42l-4.26-.15v54.46h4.26Zm270.58 55.15 4.14-.46v-51.78l-4.14.07Z"/><path d="M2404.42 1014.66c192.62-.87 375.41 36.85 549.49 118.57 119.09 55.92 225.18 130.25 322.56 218.09a1309 1309 0 0 1 270.78 341.11q92.73 167.77 127 356.72C3690 2134.72 3698 2221.24 3694 2308a1270.14 1270.14 0 0 1-64.38 346.53c-54.3 162.27-138 307.74-243.76 441.53-93.45 118.21-209.64 208.15-340.86 280.11-117.33 64.34-242.24 108.14-373.44 132.54-87.34 16.24-176 24.27-265 20.83-176.28-6.83-344.54-47.28-504.26-122.79-73.63-34.82-142.33-77.69-209.17-123.93-93.81-64.9-171.86-146-243.08-234.24-75.2-93.13-133.43-196-177.78-307.17-35.6-89.26-60.87-181.44-73.72-276.21-10.43-76.9-20.12-154.37-10.15-232.79 5.75-45.23 1.58-92 9.79-136.57 13.43-73 29.5-146.07 51.41-217a1013.58 1013.58 0 0 1 123-260.82c41.72-63 88.1-123.15 135.9-181.72 72.56-88.9 162.47-158.59 258.72-220 134.22-85.65 279.08-146.17 435.9-175 66.5-12.22 134.17-17.96 201.3-26.64Zm32.46 2440.49c640.12 1.68 1171.77-517.26 1181.3-1160.15 10-672.11-522.18-1190.74-1155.68-1202.79-671.33-12.78-1197.42 521.46-1209 1162-11.82 657.71 522.3 1201.87 1183.38 1200.94ZM1098.73 1130.12c-10.84 78.17-33.39 152.32-77.91 218.28-5 7.43-17.34 9.92-26.28 14.71-4.08-9.23-12.65-19.09-11.45-27.56 5.07-35.82 9.86-72.25 20.85-106.49 11.63-36.25 30-70.37 45.9-105.18 2.73-6 7.13-12.22 12.49-15.61 7.83-5 18.07-11.26 25.67-9.6 5 1.1 7.46 15 10.6 23.42.88 2.37.13 5.34.13 8.03Zm-50.52 1176.94c56.22-.27 99.55 42.36 99.34 97.72-.22 54.51-42.86 97.48-97.31 98-52.58.54-98.75-44.65-99.31-97.2-.57-53.18 43.92-98.26 97.28-98.52Z"/><path d="M3594.06 2280.13c0 635.57-516.69 1153.43-1153.57 1151.35-632-2.07-1148.94-503.81-1150.28-1154.2-1.31-636.66 518.2-1155.18 1158.63-1150.78 639.81 4.39 1144.55 519.11 1145.22 1153.63ZM2441.11 3410.91c623.43.18 1126.21-503.19 1132.09-1119.41 6-632.71-504.8-1145.1-1136.24-1144-620 1-1125.06 506.25-1128.24 1127.68-3.12 608.54 489.72 1134.52 1132.39 1135.73Z"/><path d="M2439.78 1175.16c625.43 6.24 1102.37 504.54 1101.79 1101.62-.61 614.1-493 1102.26-1104.88 1100-611.47-2.16-1096.82-494.9-1094.69-1109.78 2.11-592.53 480.4-1087.23 1097.78-1091.84Zm-11 437.05c-378.5 1.22-681.91 312.7-673.52 692.4 7.78 352.39 302.8 662.18 689.19 656.71 362.75-5.14 661.92-310.11 659.6-677.73-2.35-373.48-304.6-673.99-675.26-671.38ZM1561 2130.35c.1-1.29.19-2.58.29-3.87q15.48-2 31-4c24.74-3.24 49.81-5 74-10.46 9.54-2.14 21.31-11 24.35-19.54 2-5.63-7.94-20.38-15.72-23.8-57.34-25.23-115.21-49.32-173.68-71.79-7.83-3-19.93 5.08-30 8 5.82 7.83 10 19 17.77 22.9 27.67 13.92 56.62 25.26 85 37.86 7.26 3.23 14 7.54 25.72 13.88-48.25 7.25-90.25 12.87-131.91 20.36-9.23 1.66-17.28 9.94-25.87 15.17 7 8 12.52 20.09 21.28 23.26 57.66 20.93 115.91 40.27 174.25 59.28 13.06 4.26 28 5.6 33.24-12.35 5.29-18.21-7.78-23.11-21.65-27.32-29.51-8.93-58.77-18.35-88.07-27.58Zm333.6 658.31c-3.3-4.33-6.43-11-8.48-10.66-6.8 1.05-14.59 3.05-19.55 7.45-44.9 39.84-89.67 79.84-133.64 120.69a634.94 634.94 0 0 0-57.07 60c-4.9 5.92-2 18.25-2.75 27.63 9.13-1.37 20.71.32 26.94-4.67 18.35-14.7 34.76-31.85 51.61-48.38 46.11-45.21 31.09-37.2 73.16-.07 9.5 8.39 10.27 15.43 1.58 25.46q-30.48 35.16-59.1 71.91c-8 10.23-20.36 23.62-6.61 35.33s24.62-2.58 33.36-12.42q59.13-66.57 117.54-133.79c14.59-16.79 29.6-33.48 41.77-52 5.18-7.87 8.52-24.78 4.07-29.59-10.34-11.15-20.58.33-28.4 8.57-11.6 12.22-22.35 25.24-33.73 37.69-37.48 41-27.53 37.2-65.28.37-11-10.74-11.58-19.42-.07-30.38 17.57-16.74 34.31-34.38 50.81-52.17 5.3-5.73 8.78-13.19 13.82-20.97Zm1073.71 184.58c-19.37-26.19-36.72-51-55.6-74.53-7.82-9.75-17.37-25.63-31.94-14.6-4.2 3.18.25 24.32 6.37 33.48 29.58 44.29 60.88 87.45 92 130.72 18.08 25.17 36 50.58 56 74.19 5.54 6.55 18.24 7 27.65 10.31-.66-9.61 2-21.37-2.57-28.46-16.8-26-35.82-50.62-54.36-75.49s-18.77-24.79 4.77-43.44c6.34-5 13.06-9.83 18.4-15.81 10.17-11.39 17.08-8.15 25.59 2.47q29.1 36.28 60 71.09c9.3 10.47 22.23 24.63 35.79 13.6 15.06-12.25-.79-25-8.1-36.39a52 52 0 0 0-3.93-4.63c-30.92-37.44-61.58-75.1-92.85-112.26-22.13-26.29-44.6-52.34-68.11-77.37-4.14-4.4-14.18-3.26-21.49-4.67.22 7.37-.65 15 1 22 1.15 4.88 5.62 9.07 8.93 13.33 15.29 19.72 31.2 39 45.66 59.3 3.18 4.47 4.31 15.39 1.36 18.38-13.13 13.3-28.07 24.77-44.59 38.78Zm-452.2 185.61 6.19-4.67c7.15 5.05 15.26 9.17 21.31 15.31 27.68 28.15 44.24 62.38 52.92 100.64 2.84 12.48 4.24 25.52 8.93 37.25 2.44 6.07 10.65 9.83 16.25 14.63 3.51-6.33 8.69-12.33 10-19.1 1.22-6.18-1.75-13.18-2.83-19.83-7.75-47.66-28.81-89.59-56.76-128.15-8-11-8.23-17.67-.67-29.64 17.95-28.46 18.29-59.73-.1-87.91-16.94-25.94-44.85-26.67-72.73-23.48-15.3 1.75-22.86 10-22.46 25.56.21 8.08-.35 16.2.22 24.24q7.8 108.86 16 217.68c.77 10 1.34 20.81 5.5 29.58 3.1 6.52 11.85 10.36 18.09 15.4 3.93-6.37 11.1-12.71 11.18-19.13.25-20.12-2-40.3-3.6-60.43-2.32-29.33-4.95-58.63-7.46-87.95Zm-1106.7-892.37 2.92 1.4c.79 8.72.9 17.56 2.48 26.13 4.68 25.35 16.79 45.74 42.1 55 25 9.13 48.3 4.33 67.5-13.86 12.63-12 23-26.34 34.91-39.07 8.67-9.23 17.29-19.16 27.79-25.86 12.93-8.27 27.89-12.46 39.31 3.73 9.32 13.22 6.49 31.9-7.38 43.59-8.68 7.32-18.83 12.94-28.49 19.06-11 6.94-24.52 13.61-17.23 29.44 7.4 16.08 22.42 12.48 35.32 7.77 34.08-12.43 54.51-38.33 66.64-71.34 7-19.16 2.84-37.33-8.36-53.8-28-41.18-83.46-44-118.27-5.36-15.77 17.47-28.39 38-45.23 54.18-7.82 7.53-24.45 13.68-33.16 10.31s-15.44-18.74-18-30c-2.43-10.51 2.8-22.58 2.46-33.89-.2-6.5-3.53-17.09-7.66-18.3-6.18-1.81-17.52.7-20.94 5.48-7.53 10.42-11.39 23.43-16.73 35.39ZM2512.47 1413c32.24 20.19 40.86 47.71 43.12 78.13 1.1 14.76-1.36 29.89.81 44.4 1.15 7.63 8.79 14.29 13.5 21.39 6.08-6.13 13.08-11.63 17.85-18.65 2.7-4 2-10.42 2.37-15.78 2.41-38.26-7.73-73.66-26.73-106.32-7-12-6.07-19 3.21-29.59 19.29-22 22.23-48.68 12.39-76-9-25-30.78-32.43-54.44-35.6-24.23-3.25-33.54 4.26-36.43 28.47-6.4 53.56-12.89 107.11-18.91 160.71-1.73 15.39-3.74 31.13-2.15 46.35.87 8.28 9 15.79 13.92 23.66 6.54-6.6 15.56-12.12 19-20.06 4.43-10.19 4.89-22.27 6.14-33.64 2.36-21.17 4.04-42.47 6.35-67.47Zm-359.23 1815.73c3 15.3 4.22 34.51 10.6 51.85 10.25 27.85 36.94 36.73 60.44 19.12 13.79-10.33 26.51-25.81 32.83-41.72 24.55-61.77 37-126.67 41.79-192.92 1.95-27.07-11.93-47.54-35.36-55-17.9-5.71-35.85 1.83-49.81 25.6-34.29 58.39-52.17 122.24-60.49 193.07ZM2056.47 2932c-4.75-8.89-8.49-23.49-17.86-31.51-12.37-10.6-28.64-5.68-41.27 3.58-13.5 9.89-26.95 20.34-38.43 32.45-40.78 43-70.9 93.22-93.33 147.78-6 14.55-8.71 31.3-9 47.12-.56 26.6 20.76 42.56 46.34 34.93 14.58-4.35 30.47-10.15 41.35-20.13 61.32-56.29 92.97-128.77 112.2-214.22Zm604.9 79.55c7.41 82.38 14.35 163 22.21 243.58 1.26 13-.63 31 18.08 32.35 2.78.2 10.6-23.56 10.24-36.07a674.16 674.16 0 0 0-8.59-86.54c-3.86-24.25 15.43-24.47 28.54-31.84 13.87-7.8 19.62 2.21 25.45 11.48 13.63 21.71 26.55 43.89 40.66 65.27 8.11 12.29 17.09 24.33 27.56 34.56 3.76 3.68 14 3.9 19.38 1.45 2.87-1.32 3.22-12.05 1.79-17.81-1.56-6.26-6.37-11.76-10-17.45-24.26-38.1-48.06-76.52-73-114.15q-34.11-51.39-70.63-101.16c-4.11-5.62-13.06-8.73-20.37-10.42-2.52-.58-8.38 6.12-10 10.5-1.94 5.44-1.07 11.93-1.32 16.24Zm402.56-1338.19c11.67 23 10.85 41.21-3.27 62.87-8.75 13.43-21.82 24.15-29.9 37.88-4.51 7.67-2.78 19-3.87 28.68 9.47-2.1 22.13-1.06 27.86-6.85 22.85-23.09 42.48-49.18 48.65-82.22 2.57-13.77 8.77-18.12 22.58-19.56 40.27-4.2 66.32-41.62 58.36-81.25-7.86-39.12-41.88-51.87-72.25-26.48-45.45 38-90.47 76.5-135.55 114.93-4 3.45-9.12 7.43-10.33 12.06-1.85 7.06-3.72 17.52-.07 21.66s15.52 5.37 21.28 2.62c10-4.78 18.32-13.35 26.95-20.77 16.14-13.93 31.99-28.1 49.56-43.58Zm-625.79-274.23c-6.52-27.48-11.81-64.37-24.38-98.58-12.15-33.1-44.29-36.44-67-9.41-9.72 11.55-18.62 25.8-22.09 40.22-11.75 48.91-16.15 98.45-2.56 148.11 8.55 31.28 30.18 54.06 52.8 54.62 21.38.53 40.91-17.74 49.66-51.44 6.2-23.94 8.14-48.98 13.57-83.53Zm-127.9 1791c7.71 38.78 14.24 78.33 23.84 117.12 5 20 20.73 30.81 42.66 30.18 22.24-.64 39.07-11.4 43.5-32.43 5.18-24.64 6.4-50.35 7-75.64.34-14.48-12.35-19.93-24.44-17.15s-23 10.13-34.39 15.47c3.6 5.61 5.92 14 11 16.36 23.87 11.08 26.27 13.84 16.83 39.39-2.86 7.74-11.07 13.5-16.83 20.16-6-5.7-15.77-10.53-17.34-17.26-6.22-26.66-12.57-53.79-13.86-81-2.23-46.74 4.65-93 22.53-136.55 9.49-23.08 20.21-22.85 35.14-3.34 3.45 4.49 13.09 10 15.44 8.39 5-3.36 9.76-11 10-17 1.12-32.52-34.63-53-63.39-33.79-15.6 10.41-31 28.55-35.85 46.15-10.73 38.45-14.69 78.81-21.84 120.9Zm-558.17-385.65c9.79-2.11 20.07-3 29.29-6.53 52.44-20.36 62.27-77.28 21.94-124.72-16.3-19.23-25.3-21.31-46.94-8.23q-92.53 55.88-184.53 112.65c-7.36 4.53-15.21 9.89-19.75 16.87-3.73 5.73-2.89 14.44-4.07 21.83 6.91.74 14.4 3.51 20.58 1.72 8.83-2.56 17-8 24.93-13 20-12.54 40-25.05 59.33-38.48 12.81-8.89 21.62-8.69 32 4.62 16.57 21.25 39.55 31.84 67.22 33.23ZM2828 2916.32c-7.7 2.37-22.24 5.6-35.75 11.27-24.15 10.15-28.62 21-17.43 44.28q53 110.27 107.29 219.85c5 10.11 12.17 19.4 19.68 27.89 2.83 3.21 10.48 5.37 14.07 3.79s7-8.81 6.35-13c-1.43-9.81-4-19.94-8.41-28.75-16.42-32.47-33.73-64.5-50.85-96.62-6-11.27-8.2-20.25 5.68-28.72 22.82-13.93 29.93-37.65 31.92-62.45 2.72-33.96-34.99-77.64-72.55-77.54ZM1763.06 1610.56c-12.76-11.63-20.77-20.93-30.7-27.22-6.18-3.93-15.26-3.29-23-4.71 1.1 7.32 1.92 14.69 3.48 21.91.52 2.42 2.77 4.58 4.53 6.6 41.12 47.23 82 94.71 123.68 141.4 9.31 10.41 22.25 26.48 36.73 11.64 13.49-13.81-3.23-25.11-12-35.36-11.34-13.24-23.23-26-34.88-39l4-4.86c8.9 2.26 17.75 4.81 26.73 6.71 23.68 5 47.29 10.63 71.21 14 7.17 1 15.28-4.75 23-7.4-5-7.14-9.16-15-15.14-21.13-3.42-3.51-9.6-4.72-14.76-6.07-35.82-9.37-71.51-19.4-107.67-27.26-13.21-2.87-17.78-8-18.44-21-1.27-24.81-3-49.76-7.23-74.17-1.35-7.79-11.37-14.06-17.43-21-4 7.77-10.73 15.3-11.43 23.36-1.83 19.19-.68 38.68-.68 63.56Zm1178.73-163.32c1.11-45.25-24.12-65.09-59.28-51.69-15 5.72-30.36 16.2-40.1 28.75-28.9 37.21-46.2 80.49-55.47 126.62-5.21 25.91 2.4 46.15 19.19 55.27 21.11 11.46 40.68 3.94 56-10 45.99-41.92 71.33-95.19 79.66-148.95Zm519.38 864.66c-4-35.92-21.45-61.63-49.18-68.94-25.37-6.7-41.8 3.59-61.87 36.77-6.54 10.82-14.5 21.33-23.78 29.84-17.33 15.89-47.71 19.5-66.21 8.23-5.61-3.41-11.83-11-12-16.72s6.8-11.77 11.41-17c2-2.29 6.86-2.08 8.92-4.36 6.14-6.79 11.54-14.26 17.23-21.46-8.57-3.82-17.13-10.78-25.74-10.86-26.47-.23-45.5 16-51.32 40.31-6.33 26.52 1.66 49.22 27 61.17 40.09 18.92 104.32 24.73 135.09-31.53 5.82-10.63 12-21.28 19.44-30.73 9.54-12 22.43-10.62 27.23 2.43 4.42 12 1.69 26.71 2.13 40.23.2 6.09-1.19 16.61 1 17.41 6.07 2.24 17 3.28 20-.27 8.48-10.16 13.97-22.83 20.65-34.52Zm-1335.43-968.35c2.2 9.8 3 15.16 4.62 20.27 14.61 46.91 29.09 93.86 44.18 140.62 5.77 17.88 11.91 35.83 20.22 52.59 2.58 5.19 13.26 9.52 19.45 8.64 4-.56 9.25-11.31 9.17-17.43-.13-9.8-3.79-19.68-6.74-29.28-6.89-22.52-13.55-45.15-21.66-67.24-5.53-15.08-.18-22.43 13.58-27.53 11.29-4.18 23-8.46 32.61-15.37 5.38-3.88 6.84-13.2 10.07-20.08-6.94-2.6-14-7.68-20.8-7.27-11.93.73-23.81 4.29-35.43 7.65-10.55 3.05-18.81 2.77-21.8-9.77-2.64-11-11.7-23.16 5.71-30.79 20.31-8.91 41-17.25 60.25-28.11 7-4 10.39-14.45 15.43-22-8.86-4.17-19.51-13.8-26.27-11.58a681.62 681.62 0 0 0-85.42 35.06c-8.18 4.07-12.64 15.65-17.17 21.62Zm-375.31 593.64 16.5-12.94c-6.1-5.89-11.32-15.17-18.46-17-19.44-5-39.76-6.55-59.62-10.13-50.32-9.08-100.48-19.17-151-27.19-8.19-1.3-17.72 5.9-26.64 9.17 3.8 7.75 5.8 17.44 11.7 22.91q43 39.79 87.76 77.56c21 17.78 42.76 34.94 65.46 50.51 5.87 4 16.56 1 25 1.24-2.43-7.48-2.8-16.93-7.69-22.06-13.43-14.08-28.86-26.23-43.29-39.38-7.15-6.52-17.9-11.89-10.17-24.67 7.44-12.3 11.62-27.41 32.59-22.14 24.15 6.02 48.98 9.02 77.86 14.12Zm280.89-286.13c41.65-4.61 67.69-45.46 51.91-84.16-13.41-32.86-38-53.44-73.93-58.7-14.66-2.15-29.71-2.41-44.06-5.74-24.49-5.7-32.75-27.59-18.44-48.24 5.23-7.55 14.25-12.43 19.67-19.88 3.88-5.34 7.84-14.24 5.85-19.16-1.91-4.73-13-10.37-17.31-8.66-13.17 5.25-28.22 11.24-36.73 21.67-18.45 22.63-19.08 49.93-8 76.54 10.84 26 32.69 35.46 59.58 38 18.6 1.78 37.47 4.93 55.16 10.71 15.37 5 24.62 26.82 19.65 40.08-6.68 17.8-20.74 16.38-35.41 12.43-2-.53-4.13-1.65-5.88-1.22-6 1.49-15.16 2-17 5.8-2.16 4.49 0 15 3.9 17.72 12.81 8.9 27.24 15.4 41.04 22.81Zm713-241.61c0-18.8.3-30.78-.08-42.74-.47-14.73 0-29.76-3-44-1.35-6.46-10-11.39-15.39-17-4.17 6.1-11.07 11.8-12 18.37-4.08 28-7 56.13-9.22 84.32-3.77 48.37-7.12 96.78-9.58 145.23-.57 11.14 1.3 25 17 25.16 14.14.15 19.14-11 20.16-23.38 1.73-20.83 3.44-41.68 4.15-62.55.51-15.08 5.85-25.91 17.48-36.48 27.87-25.32 54.44-52.19 80-79.84 4.51-4.88 1.64-16.58 2.17-25.13-8.63.68-17.62.12-25.77 2.47-5.35 1.55-9.55 7.21-14.16 11.15-15.65 13.37-31.29 26.85-51.73 44.42ZM2933.9 1646l-4.91-3.35c3.6-10.29 5.46-21.66 11.09-30.67 20-31.91 41.23-63 62-94.43 5.56-8.39 13.14-16 16.28-25.25 2.59-7.59 0-17-.29-25.53-7.69 2.62-17.8 3-22.68 8.21-40.24 43.14-73.13 91.38-96.54 145.76a40.55 40.55 0 0 0-2.37 7.72c-3.46 16.53-3.77 33 10.44 44.72 14.7 12.13 30.57 7.32 45.3-1.1 8.74-5 18-10 25-17 35.67-35.67 70.76-71.93 105.83-108.2a25.81 25.81 0 0 0 6.74-12.22c.92-4.79 1.17-12.73-1.47-14.47-4.05-2.66-12.55-3.59-16.1-1-9.12 6.61-16.52 15.59-24.67 23.54-31.3 30.53-62.46 61.2-94.11 91.36-5.44 5.03-12.97 7.91-19.54 11.91Zm427.23 422.68c-37.6 3.72-89.37 8-140.84 14.62-10.05 1.29-27.27 11.92-27 17.59 1.37 30 6.72 59.87 12.23 89.5.77 4.17 10 9.17 15.34 9.25 3.66.06 8.88-7.22 10.78-12.22 2-5.38 1.31-11.92 1.3-18 0-17.66-7.43-43.32 1.24-51 11.59-10.29 35.63-6.13 54.17-9.18 15.59-2.57 21 4.54 25 18.64 2.94 10.46 11.23 27.56 17.11 27.55 17.89 0 11.61-18.66 15.44-29.81 2.66-7.75 5.16-20.24 10.19-21.61 16-4.36 33.2-5.51 49.94-5.59 4.14 0 9.71 8.09 12.19 13.56 5.28 11.62 7.78 24.59 13.75 35.76 3.19 6 11.24 9.32 17.09 13.86 2.79-6.86 8.29-13.85 8-20.56-3-61.81-20.79-77.39-95.93-72.41ZM3298.87 1765c-4.21 1.62-11.45 3.56-17.89 7-52.92 28.33-105.83 56.7-158.43 85.62-13.76 7.56-29.46 18-21.87 36 10.67 25.32 25.15 49.15 39.43 72.75 2.87 4.76 12.16 5.63 18.49 8.29 1.42-6.68 5.53-14.2 3.76-19.88-5.19-16.66-13.22-32.41-19.06-48.89-2.05-5.77-3.6-16.46-.84-18.39 15.91-11.12 32.57-21.85 50.46-29 4.14-1.64 14 11.44 21.41 17.62 2.56 2.15 5.21 5 8.22 5.65 5.58 1.14 13.13 3.15 16.74.52s4.65-10.66 4-16c-.74-6.45-4.84-12.46-6.66-18.89-1.18-4.16-2.66-11.68-1-12.69 17.79-10.72 35.5-22.43 54.87-29.1 5.28-1.82 16 12.49 24.36 19.17 4.68 3.73 9.77 9.81 14.61 9.75 5.84-.08 14.89-4.18 16.84-8.91 7.69-18.48-24.58-61.42-47.44-60.62Zm-1508 37.42c5.16 34.14-10.29 45.86-38.37 31.56-20.21-10.28-41.62-22-56.2-38.61-18.59-21.16-32.52-47.06-45.11-72.56-6.35-12.87-3.92-28.21 15.86-32.52 4.07-.89 10.3-7.55 9.75-10.46-.92-4.86-5.64-10.52-10.27-12.91-19.87-10.26-41.4-1.08-48.72 20.56-10.12 29.91-2 58 13.27 83.25 28.05 46.37 69.13 78.59 118.71 99.8 7.84 3.35 17 4.33 25.66 5 41.39 3 71.39-41.71 52.09-78.81-3.92-7.53-14.5-11.59-22-17.25Zm1324.66 1010.17c-13.55-5-21.61-8-29.69-10.88-22.16-8-44.12-16.74-66.66-23.5-5.17-1.55-12.36 3.67-18.63 5.77 3.42 5.14 5.68 12.44 10.47 15 13.62 7.25 28.31 12.49 42.52 18.66 65.48 28.42 130.7 57.44 196.59 84.9 13.41 5.59 34.51 20.25 42.42.63 6.73-16.69-17.39-21.84-30.6-27.89-28.15-12.9-57.41-23.42-85.3-36.81-8.53-4.09-16.86-13.23-20.52-22-13.94-33.56-25-68.33-39.15-101.79-5.14-12.14-8.36-35.33-26.91-28.26-16.35 6.23-4.73 25.24-1.26 38 7.55 27.73 16.59 55.09 26.72 88.17Zm-1107.7 407.52c2.58 4.48 4.2 10.85 7.07 11.48 4.36.94 11.35-.55 14.11-3.72 8.35-9.58 16.74-19.69 22.37-31 29.19-58.47 58.36-117 85.7-176.34 8.86-19.23 18.72-24.58 37-14.52 2.92 1.61 6.39 3.71 9.39 3.4 7.92-.8 15.71-2.79 23.55-4.32-4.1-6.7-6.61-16.64-12.56-19.56-26.55-13.06-54-24.28-81.33-35.75-4.85-2-10.67-3.47-15.73-2.82-5.38.69-10.4 4.19-15.58 6.46 2.61 5.61 4.54 11.7 8.08 16.63 2.13 3 6.58 4.68 10.32 6 16.48 6 19 14.55 10.54 30.74-31.06 59.76-60.79 120.23-90.63 180.63-5 10.21-8.07 21.31-12.3 32.69Zm1332.43-1277.49c15.06-15.49 27.55-26.09 37-38.95 4.94-6.75 4.49-17.45 6.47-26.37-8.35 2-18.67 1.54-24.75 6.39-53.16 42.43-105.7 85.64-158.06 129a142.69 142.69 0 0 0-23.12 25.15c-2.6 3.51-3.5 12.36-1.2 14.49 3.6 3.34 11.26 5.24 16 3.78 7.44-2.31 14.34-7.3 20.61-12.24 18-14.19 37.42-27.17 52.8-43.84 26.13-28.29 53.31-32.37 87.62-15.71 18.39 8.93 39.79 12.11 60.16 16.24 5.23 1.06 11.71-4.09 17.62-6.39-3.15-6.06-4.78-14.49-9.77-17.7-11.2-7.19-23.88-12.24-36.31-17.32-14.1-5.68-28.51-10.48-45.07-16.53ZM3295.51 2539c-18.8.53-37.7 22.38-37.59 43.47.09 17.43 13.52 30.38 31.22 30.1 20.88-.33 40.87-20.29 40.39-40.35-.42-18.13-16.36-33.69-34.02-33.22Zm-1716.31 60c18.87-.6 34.93-18.12 34.73-37.91a33.63 33.63 0 0 0-35.37-33.72c-19 .7-33.6 16.58-33.42 36.32.18 20 15.46 35.84 34.06 35.31Z"/><path d="M2402 2568.17c-141.9-3.67-287.71-25.74-422.83-94.82-31.69-16.2-61.33-36.63-91-56.5-24.36-16.34-26.6-25-17.75-53 21.21-67 53.8-128.06 98.79-182 68.22-81.74 148.13-149.07 245.49-194.23 154-71.42 303.52-55.44 447.57 26.67 138.67 79 239 195.65 314.09 334.9 19.3 35.77 16.12 49.26-17.43 72.92-19.69 13.88-41.45 25.32-63.43 35.35-154.15 70.36-316.22 106.64-493.5 110.71Zm-184.41-365 16.46-6.31c-5.08-3.12-9.84-7.21-15.35-9.09-5.15-1.76-11.1-1.19-16.7-1.65q-1 2.12-1.93 4.23l14.43 11.29c-7-1.89-14-4.94-21.09-5.17-3.48-.12-7.13 5-10.71 7.73 7.38 3.13 14.52 7.21 22.21 9.11 7.19 1.82 15.9 2.48 12.71-10.1Zm49 214.73c-.84-6.18-.15-13.33-3.19-18.12-1.43-2.25-10.45-1.12-15.27.61a35.56 35.56 0 0 0-14.79 9.89c-3.49 4.18-4.54 10.39-6.67 15.71 6.24 1.68 13.21 5.95 18.55 4.44 8-2.26 14.85-8.58 22.19-13.17l-23.28 31.52 44.49-12.92c-6.48-17.47-6.48-17.47-21.98-17.92Zm-4.44-353.35-14.44 2.55c2 4.32 3.66 8.83 6.09 12.89 2.29 3.84 5.4 7.2 8.53 11.26l-33.37-2.05q.18 9.95.39 19.89l-17.35 10.78c4.09 4.64 7.87 9.63 12.39 13.81 3.4 3.14 7.46 6.32 11.78 7.52 5.73 1.6 12 1.31 18 1.83-2.93-5.15-5.37-10.66-8.91-15.34-5.05-6.66-10.91-12.71-16.43-19 3 1.39 6.08 2.77 9.11 4.17 24.63 11.33 29.74 10.58 44.88-13.2 9.82-15.44-9.44-18.68-14.67-27.9-1.62-2.85-4.27-5.11-6.46-7.63l37.05 16.56 4.77-5.66c-6.4-7.51-12.13-15.76-19.43-22.24-4.29-3.81-11.08-4.79-16.75-7.05Zm251.64 4.74q1.53 10.8 3 21.62c12-6.3 24.36-12.12 35.88-19.26 2.69-1.67 3.64-7.89 3.36-11.87-.14-1.92-4.85-3.9-7.78-5.17-17.46-7.55-25.56 6.12-35.37 15.84l16.43-29c-5.1-6.18-8.4-12.49-13.6-16-11.18-7.52-21.84-19.94-37.72-9.26-7.22-6.13-13.73-14.35-22.08-17.24-2.84-1-10.33 11.41-14.52 16.31-4.62-8-9.29-22.75-13.76-22.68-18.32.26-35.65 4.9-55.31 1.82-15.73-2.47-33.89 8.84-50.52 15.22-2.94 1.13-6.13 9-4.93 12.17a91.12 91.12 0 0 0 14 24.36c2.3 2.84 9.82 4.37 13.37 2.82 24.16-10.48 48.69-15 75-10.33 41.14 7.35 41.2 7 59.38-23.69-1.37 13.77-2.75 27.54-4.55 45.57Zm-37.41 457.19c3.23.49 6.53 1.66 9.68 1.35 24.14-2.34 48.38-4.11 72.35-7.65 139.15-20.54 271.52-63.12 398.66-122.89 16.08-7.56 16.49-13.85 7.74-28.56-55.46-93.13-126-173.39-207.23-244.36-66.58-58.21-140.68-104.37-226.73-128.89-11.69-3.33-23.77-5.31-35.66-7.91l-3.51 5c111 56.59 156.11 152.12 151.85 269.44-4.27 117.56-59.42 207.99-167.1 264.51Zm-152.25-534-3.33-4.64c-14.71 4.35-29.83 7.66-44.07 13.23-181.92 71.07-309.61 199.46-394.11 373.49-5.31 10.94-3.5 16.86 7.53 22.26 44.81 21.95 88.53 46.3 134.09 66.53 88 39.09 182.76 51 277.1 63.59 5.6.75 11.48-.54 17.22-.88-107.14-58.42-154.22-151.57-155.51-268.17-1.27-119.65 54.78-208.39 161.13-265.41Zm287.54 318.8c3.52-4 13.2-11.23 12-14.38-8.06-21.53-29.65-11-44.92-16-3.32-1.1-12.67 5.37-13.64 9.62-5.75 25.36-3.27 29.08 27.35 41.6 6.36 2.59 14.51.83 21.83 1.07-.85-7.67-1.77-15.32-2.57-21.91Zm-386.45-40.63-37 6.4.18 3.93 9.76 4.39-21.7 28.23h49.78c-.34-9.8-.71-19.59-1-29.39-.05-3.21.03-6.36.03-13.56Zm391.47-79.13c-.87-2.58-1.75-5.15-2.62-7.73-1-7.35-2-14.71-3.37-24.23a115.15 115.15 0 0 0-13.05.71c-5.09.77-10 2.4-16.13 3.92l6-13.16c-29.1 1.54-29.34 1.86-24 32.76Zm-55.38 242.64c-10.88-10.41-21-20.91-32.07-30.12-3.06-2.53-11.72-3.31-13.57-1.19-3.41 3.9-6.81 12.84-4.74 15.66 9.43 12.87 20.76 24.33 31.73 36.66Zm61.1-188.19c1.66-2.17 3.31-4.34 5-6.5-4.51-6.09-8.38-16.64-13.65-17.39-13.21-1.88-28.32-2.42-40.2 2.49-8.56 3.53-4.7 14.94 5.71 16.82 14.22 2.61 28.78 3.14 43.19 4.61Zm-373.24 115c-20.14-17.32-35.65-11.24-50.41-5.69-3 1.13-5.67 9-4.8 13 .93 4.25 7.42 11.3 9.42 10.66 14.44-4.55 28.31-10.79 45.84-17.94Zm284.56 101.75c-13.52-14-19.6-32.82-38.08-40l-6.17 3.78 23.12 51.29Zm-81.6 49.74 6-5.63c-3.4-13.41-6.11-27.06-10.77-40-1-2.74-9.09-2.92-13.92-4.28-.53 13.15-2.85 26.61-.62 39.27.81 4.56 12.59 7.18 19.36 10.67Zm135.46-120.08c-7.46-21.65-15.79-40.42-41.56-41.24-4.81 23.72 13.24 41.52 41.61 41.27Zm-408.16-161-2.66 8.77c12.71 4.87 25.24 12.2 38.24 13.19 4.08.31 9.45-16.45 16.8-30.19Zm442.71 30.27-.63-7.65c-13-1.08-26-2.74-39-2.85-3.37 0-8.05 4.23-9.65 7.67-.86 1.85 3 8.32 5.66 9 15.57 3.8 30.87 4.25 43.67-6.15Zm-314.07 237.59c12.74-.62 31.31-34.27 25.19-41-2.53-2.77-13.59-2.76-15.5-.15a103.21 103.21 0 0 0-14.23 28.47c-1.15 3.68 3.2 9.15 4.59 12.7ZM2295 2021.93c-6.33 8.31-12.41 14.58-11.65 15.56a265.86 265.86 0 0 0 26.18 29.14c1.2 1.14 7.33-2.8 11.12-4.52a2 2 0 0 0 .31-1.86c-7.81-11.62-15.68-23.19-25.96-38.32Zm-58.66 316c-.44-3.39-.87-6.79-1.3-10.18-14.93-1.64-29.83-3.92-44.79-4.29-2.46-.06-5.14 8.23-7.71 12.66 4.14 1.93 8.12 4.63 12.47 5.6a46.2 46.2 0 0 0 15.07.64c8.81-1.04 17.51-2.92 26.26-4.44ZM2466 2452.7c-16.55 14.36-12.45 38.42 10.09 53.34 3.47-20.49-2.53-36.38-10.09-53.34Zm-84.82 19.23-7.48-2c-12.13 10.29-15.44 25.13-16.76 40.61-.18 2 4.05 6.09 6.38 6.2 3.42.15 9.51-1.79 10-3.92 3.33-13.48 5.4-27.24 7.87-40.89Zm222.22-114.28 3.31-8-47.52-26.65-5 4.43c1 5.12.66 13.67 3.36 14.78 14.89 6.16 30.5 10.49 45.86 15.44Zm-397.12-223.74C2200.82 2162 2218 2178 2246 2172Zm94.25 310.09q-1.86-2-3.74-3.91l-33.79 26.97 26.55 16.78Zm268.85-18.62c3.17-9.1 8.51-19.15 6.85-20.49-12.05-9.69-25.51-17.62-38.52-26.11l-3.34 5.42Zm-5.21-224.15c12.16 12.41 44.3 18.29 53.61 12.77 2-1.18 4.69-4.38 4.27-5.82-.78-2.64-3.58-6.58-5.66-6.65-16.13-.53-32.29-.27-52.22-.27Zm-69.27 288.8 6-2.77c3.87-16-6.73-35.36-29.43-42q11.71 22.43 23.43 44.8Zm57.18-343.26c20.66 3.41 40.15-4.86 47-19.91-16.39-5.17-37.68 3.86-47 19.94Zm-151.69 326.39-10.11-.41c-1.79 12.18-4.05 24.32-5 36.56-.22 2.81 4 6 6.17 9 3-2.86 8.29-5.52 8.55-8.61 1-12.09.39-24.33.39-36.51Zm17.58-2.48-9.62 1.42q3.06 21.61 6.1 43.23l10.34-1.53Zm135.65-368.5 5.35 9.19c7.54-4.88 15.11-9.71 22.45-14.88.17-.12-3.15-5.94-3.41-5.82-8.24 3.61-16.3 7.61-24.39 11.54Z"/><path d="M1933.23 2513.85c348.73 196.42 693.32 173.83 1034.84-19.19-40 60.15-304.25 153.9-462.23 163.46-206.37 12.5-400.29-24-572.61-144.27Zm970.13-418.45c-4.85-5.17-9.77-10.26-14.53-15.51-99.84-110.31-217.66-192.58-365.52-222.35-214.79-43.25-396.28 22.57-543.89 180.72-43.34 46.43-76.46 102.41-114.09 154.13-4.16 5.71-7.19 12.23-12.4 16.58 107.65-210.87 269.94-352.11 513.06-371.61 225.45-18.08 398.9 87.52 537.37 258.04ZM2505.79 3056c1.62-2 5.81-10.27 8.12-9.77 12.59 2.71 26.75 4.9 36.48 12.35 12.52 9.6 9.29 26.15.87 36.64-7.14 8.9-19.87 13.6-30.77 18.8-1.2.57-8.87-7.42-9.74-12.14-2.55-13.88-3.2-28.08-4.96-45.88Zm12.75-1746c20.29 4.61 31.49 12.72 29.82 30.71-1.53 16.53-10.57 26.61-29.82 27ZM2253 3045.29c3.78 10.28 8.56 17.27 8.48 24.19-.26 20.76-.89 41.74-4.18 62.18-5.54 34.52-12.29 68.93-20.52 102.91-3.05 12.62-10 25.24-18.18 35.46-11.49 14.38-24.87 11.43-29.53-6.2A104.25 104.25 0 0 1 2186 3226a450.58 450.58 0 0 1 50.17-161 68.82 68.82 0 0 1 6.84-10c1.6-2.15 3.75-3.77 9.99-9.71Zm-367 75.06c1.11-4.1 2.22-10.13 4.37-15.75 23.22-60.61 56.47-114.78 104.31-159.17 5.84-5.42 14.65-7.64 22.08-11.34 1 8.19 4.89 17.34 2.54 24.41-20.32 61-43.67 120.49-93.94 164.34a79.19 79.19 0 0 1-20.31 13c-12.36 5.36-19.51-.22-19.05-15.49Zm811.66-66.29 28.85 42.49-27.51 13.28a194109 194109 0 0 0-7.5-53.08Zm455.84-1426.74c-7.7 11.54-12.82 23.39-21.69 30.67-4.18 3.43-15.78-1.23-23.57-3.65-3-.92-7.1-8.16-6.67-8.61 12.22-12.59 24.95-24.69 37.6-36.86Zm-775.82-314.71c4.82 9.45 11.2 17.62 13.3 26.78 10 43.44 16.55 87.25 5 131.56-1.68 6.44-3.74 13.12-7.24 18.68-5.9 9.4-13.13 10.9-20.47.69-23.25-32.37-22.41-142.56 1.52-173.67.77-.95 2.36-1.25 7.89-4.04Zm-617.96 1459.01c-14-9-29.34-18-43.42-28.64-2.16-1.64-.71-13.44 2.58-16 13.86-10.67 28.91-19.84 43.87-29 3-1.82 8.18-2.63 11.21-1.3 14.72 6.45 22 53.8 9.56 63.81-5.44 4.43-12.97 6.23-23.8 11.13ZM2836 3026.93c-10-19.7-19.46-38-28.61-56.47-5.33-10.77.91-14.27 10.4-15.93 21.74-3.82 37 3.88 43.7 22.39 7.39 20.62-.29 37.08-25.49 50.01Zm64.66-1602.48c2 10.87 4.29 17.13 4.07 23.29-1.73 48.66-26.76 86.23-58.94 119.92-3.4 3.56-12 6.15-15.71 4.28s-6.22-10.35-5.41-15.3c6.88-41.69 21.26-80.49 49.16-112.93 6.1-7.09 15.52-11.31 26.83-19.26Zm-1293.4 506.73-25.9-20c28.48-3.02 33.17.29 25.9 20Z"/></g></g></svg>