<?xml version="1.0" encoding="UTF-8" standalone="no"?><!DOCTYPE svg PUBLIC "-//W3C//DTD SVG 1.1//EN" "http://www.w3.org/Graphics/SVG/1.1/DTD/svg11.dtd"><svg width="100%" height="100%" viewBox="0 0 455 455" version="1.1" xmlns="http://www.w3.org/2000/svg" xmlns:xlink="http://www.w3.org/1999/xlink" xml:space="preserve" xmlns:serif="http://www.serif.com/" style="fill-rule:evenodd;clip-rule:evenodd;stroke-linejoin:round;stroke-miterlimit:2;"><rect x="0" y="0" width="455" height="455"/><path d="M52.687,70.117c-6.354,0 -12.209,3.449 -15.289,9.007c-3.081,5.558 -2.903,12.35 0.465,17.739l174.813,279.7c3.194,5.112 8.796,8.217 14.824,8.217c6.027,-0 11.63,-3.105 14.824,-8.217l174.812,-279.7c3.369,-5.389 3.547,-12.181 0.465,-17.739c-3.08,-5.558 -8.934,-9.007 -15.289,-9.007l-52.443,0c-5.977,0 -11.54,3.054 -14.749,8.096l-107.183,168.431l-6.063,-10.105l90.228,-139.444c3.479,-5.377 3.739,-12.225 0.678,-17.851c-3.059,-5.625 -8.952,-9.127 -15.355,-9.127l-244.738,0Z" style="fill:#fff;"/></svg>